<?xml version="1.0" encoding="utf-8"?>
<!-- Generator: Adobe Illustrator 23.0.3, SVG Export Plug-In . SVG Version: 6.00 Build 0)  -->
<svg version="1.1" id="Layer_1" xmlns="http://www.w3.org/2000/svg" xmlns:xlink="http://www.w3.org/1999/xlink" x="0px" y="0px"
	 viewBox="0 0 69.1 66.6" style="enable-background:new 0 0 69.1 66.6;" xml:space="preserve">
<style type="text/css">
	.st0{fill:#8F1D77;}
</style>
<g>
	<path class="st0" d="M66.5,61.3h-9.9V24.1h-9.9c-0.1,0.9,0,2.1,0,2.1s0,12.8,0,19.3v15.8h-4.1V20.4h-10v40.9h-4V28.4h-10v32.8h-4
		V38.4H4.5v23h-2v2h64.1C66.6,62.8,66.5,62.2,66.5,61.3z M12.5,61.2H6.7V40.3h5.8V61.2z M26.4,61.3h-5.7V30.4h5.7V61.3z M40.4,61.3
		h-5.7V22.4h5.7V61.3z M54.4,61.3h-5.7V26.4h5.7V61.3z"/>
	<path class="st0" d="M34.5,12.4c0,2,0,3.8,0,5.7c-0.2,0.1-0.4,0.3-0.6,0.4c-0.6-0.7-1.3-1.4-2.1-2.2c-1.8,1.9-4,3.9-6,6.1
		c-1.2,1.3-2.5,2.1-4.3,1.8c-3.2-0.6-5.7,0.6-7.9,3c-2.9,3-6.1,5.7-9.2,8.5C3,35.1,2.8,34.5,4,33.4c3.8-3.4,7.5-6.9,11.3-10.3
		c0.7-0.6,2-1,2.9-0.9c3.7,0.5,6.4-0.8,8.6-3.6c1.1-1.4,2.6-2.6,3.9-3.8c-0.8-0.6-1.6-1.2-2.3-1.8c0.1-0.2,0.2-0.5,0.3-0.7
		C30.5,12.4,32.4,12.4,34.5,12.4z"/>
	<rect x="60.4" y="24.3" class="st0" width="6.1" height="1.9"/>
	<rect x="60.4" y="28.2" class="st0" width="6.1" height="1.9"/>
	<rect x="60.4" y="32.3" class="st0" width="6.1" height="1.9"/>
	<rect x="60.4" y="36.4" class="st0" width="6.1" height="1.9"/>
	<rect x="60.4" y="40.5" class="st0" width="6.1" height="1.9"/>
	<rect x="60.4" y="44.6" class="st0" width="6.1" height="1.9"/>
	<rect x="60.4" y="48.7" class="st0" width="6.1" height="1.9"/>
	<rect x="60.4" y="52.9" class="st0" width="6.1" height="1.9"/>
	<rect x="60.4" y="57" class="st0" width="6.1" height="1.9"/>
</g>
</svg>
