<?xml version="1.0" encoding="utf-8"?>
<!-- Generator: Adobe Illustrator 23.0.3, SVG Export Plug-In . SVG Version: 6.00 Build 0)  -->
<svg version="1.1" id="Layer_1" xmlns="http://www.w3.org/2000/svg" xmlns:xlink="http://www.w3.org/1999/xlink" x="0px" y="0px"
	 viewBox="0 0 69.1 66.6" style="enable-background:new 0 0 69.1 66.6;" xml:space="preserve">
<style type="text/css">
	.st0{fill:#FFFFFF;}
</style>
<g>
	<path class="st0" d="M67.2,59.5c-0.4,0.1-0.8,0.4-1.2,0.4c-1.4,0-2.8,0-4.2,0c-0.6,0-1-0.3-1-0.8s0.3-0.8,1-0.8c1.3,0,2.6,0,3.9,0
		c0-12.7,0-25.3,0-38c-5.4,0-10.8,0-16.3,0c0,0.2,0,0.5,0,0.7c0,5.8,0,11.6,0,17.3c0,0.2,0.1,0.5,0,0.6c-0.2,0.3-0.5,0.6-0.7,0.6
		c-0.3,0-0.6-0.3-0.8-0.6c-0.1-0.2,0-0.5,0-0.7c0-11.2,0-22.4,0-33.6c0-0.3,0-0.5,0-0.8c-9,0-18,0-27.1,0c0,0.3,0,0.5,0,0.8
		c0,11.3,0,22.6,0,33.9c0,0.9-0.2,1.3-0.8,1.3c-0.5,0-0.8-0.4-0.8-1.3c0-5.8,0-11.6,0-17.5c0-0.3,0-0.5,0-0.8c-5.4,0-10.7,0-16.1,0
		c0,12.6,0,25.2,0,38c0.8,0,1.6,0,2.3,0s1,0.3,1,0.8s-0.4,0.8-1,0.8c-1,0-2,0-3,0c-0.6,0-0.9-0.3-0.9-0.9c0-0.1,0-0.3,0-0.4
		c0-12.7,0-25.4,0-38.1c0-1.3,0.3-1.6,1.6-1.6c5.1,0,10.2,0,15.3,0c0.2,0,0.5,0,0.8,0c0-0.3,0-0.5,0-0.7c0-4.6,0-9.3,0-13.9
		c0-1.2,0.5-1.7,1.7-1.7c8.9,0,17.8,0,26.8,0c1.2,0,1.7,0.5,1.7,1.7c0,4.6,0,9.2,0,13.8c0,0.3,0,0.5,0,0.9c0.3,0,0.5,0,0.8,0
		c5.2,0,10.4,0,15.5,0c0.7,0,1.2,0.2,1.5,0.8C67.2,32.9,67.2,46.2,67.2,59.5z"/>
	<path class="st0" d="M22.8,64.2c-1.1-0.5-1.2-0.7-1.2-2c0.1-1.4,0.2-2.7,0.4-4.1c0.2-1.7,1.2-2.8,2.9-3.3c0.9-0.3,1.9-0.5,2.8-0.8
		c0.8-0.3,1.6-0.6,2.5-0.9c0.6,1.8,1.3,3.7,1.9,5.5h0.1c0.3-1.1,0.6-2.1,0.9-3.2c0-0.1-0.2-0.3-0.3-0.5c-0.1-0.3-0.3-0.7-0.2-1
		c0.1-0.2,0.6-0.4,0.9-0.5c0.3-0.1,0.6-0.1,0.9,0c0.3,0.1,0.7,0.2,0.8,0.4s0,0.7-0.2,0.9c-0.4,0.4-0.4,0.7-0.2,1.1
		c0.3,0.9,0.5,1.7,0.9,2.6c0.6-1.9,1.2-3.8,1.8-5.7c1.4,0.9,2.9,1.2,4.4,1.6c1,0.3,2,0.6,2.7,1.3c0.3-0.1,0.6-0.2,0.9-0.2
		c0.9,0,1,0.1,0.6,1c-0.1,0.1-0.1,0.3,0,0.5c0.1,0.4,0.2,0.7,0.3,1.1c0.2,0.4,0.1,0.7-0.3,1c-0.2,0.1-0.3,0.4-0.3,0.6
		c0,0.8,0.1,1.5,0.2,2.3c0.1,1.3-0.1,1.6-1.3,2C37.4,64.2,30.1,64.2,22.8,64.2z"/>
	<path class="st0" d="M34.3,7c3.2,0,6.4,0,9.6,0c1,0,1.1,0.1,1.1,1c0,1.9,0,3.9,0,5.8c0,0.7-0.2,0.9-0.9,0.9c-6.5,0-13.1,0-19.6,0
		c-0.7,0-0.9-0.2-0.9-0.9c0-2,0-4,0-6c0-0.7,0.2-0.9,0.9-0.9C27.8,6.9,31,7,34.3,7z"/>
	<path class="st0" d="M39.3,42.4c0,0.4,0,0.7,0,1.1c0,0.2,0.2,0.5,0.3,0.7c0.1,0.3,0.3,0.6,0.3,1c0,0.3-0.1,0.7-0.3,1
		C38.8,47.5,38,49,37,50.3c-1.7,2.1-4.4,2.2-6.2,0.1c-1.1-1.3-1.9-2.8-2.8-4.3c-0.5-0.9-0.3-1.4,0.4-2.1c0.1-0.1,0.1-0.3,0.1-0.4
		c0-0.7,0-1.4,0-2.1c0-2.1,1.1-3.6,3.1-4.3c1.6-0.6,3.2-0.5,4.8,0.1c2,0.8,3,2.4,2.9,4.5C39.3,41.9,39.3,42.2,39.3,42.4L39.3,42.4z
		 M29.8,44.5c-1.4,0.3-1.5,0.6-0.8,1.7c0.7,1.2,1.5,2.4,2.3,3.5c1.4,1.8,3.7,1.8,5.1,0c0.6-0.8,1.1-1.6,1.6-2.5
		c0.4-0.6,0.7-1.2,1-1.9c0.2-0.4,0.1-0.8-0.5-0.7c-0.2,0-0.4,0-0.7-0.1c0.2-0.7,0.4-1.3,0.5-1.9c-0.3,0-0.4,0-0.6-0.1
		c-2.2-0.1-4.1-0.7-5.9-2.1c-0.3-0.2-0.8-0.3-1.2-0.1c-0.9,0.3-1.5,1.4-1.3,2.4C29.6,43.4,29.7,43.9,29.8,44.5z"/>
	<path class="st0" d="M51.7,50.7c-1.2-0.9-2.4-1.8-3.5-2.7c-0.6-0.5-1.1-1.3-1.6-2c-2.2,2.2-2.5,4.9-1.5,7.9c-0.6,0-1.2,0.1-1.7,0
		c-0.3-0.1-0.5-0.5-0.6-0.8c-0.5-1.6-0.4-3.2,0-4.7c0.4-1.4,1.1-2.6,2.2-3.6c1.5-1.4,5.5-1.6,7.2,0.6c1.9,2.5,2.4,5.2,1.4,8.2
		c-0.1,0.4-0.3,0.5-0.7,0.5c-0.3,0-0.5,0-0.8,0c0.5-1.7,0.6-3.3-1.1-4.6C51.2,49.7,51.4,50.2,51.7,50.7z"/>
	<path class="st0" d="M16.8,59.9c0.2-0.8,0.5-1.4,0.6-2.1c0-0.2-0.1-0.4-0.2-0.6c-0.3-0.5-0.1-0.8,0.4-0.9c0.3,0,0.5,0,0.8,0
		c0.6,0.1,0.7,0.4,0.4,0.9c-0.1,0.2-0.2,0.6-0.1,0.8c0.1,0.5,0.3,1.1,0.6,1.6c0.4-1.2,0.8-2.4,1.2-3.7c0.2,0.1,0.4,0.2,0.7,0.4
		c-0.9,2.1-0.6,4.3-1,6.5c-0.2,0-0.4,0-0.6,0c-2.9,0-5.8,0-8.7,0c-1.2,0-1.5-0.3-1.3-1.5c0.1-0.5,0.1-1,0.1-1.5
		c0.1-1.5,0.8-2.3,2.3-2.7c1.2-0.3,2.4-0.6,3.7-1C15.9,57.2,16.3,58.5,16.8,59.9z"/>
	<path class="st0" d="M53.7,58.6c-0.7-1-1.3-1.9-2-2.9c1.8,0.8,3.6,1.3,5.1,2.6c1,0.9,1.3,2.1,1.5,3.4c0,0.4,0.1,0.7,0.1,1.2
		c-0.2,0-0.5,0-0.7,0c-3.1,0-6.1,0-9.2,0c-0.6,0-0.9-0.1-0.9-0.8c0-0.2-0.1-0.5-0.1-0.9c0.3,0.2,0.5,0.4,0.8,0.6
		c1-0.9,2-1.7,2.9-2.6c0.5-0.5,1.1-0.8,1.8-0.6C53.1,58.6,53.3,58.6,53.7,58.6z"/>
	<path class="st0" d="M21.6,48.8c0,0.5-0.1,1.1,0.3,1.5c0.2,0.2,0,0.8-0.1,1.1c-0.5,0.9-1,1.7-1.6,2.5C19,55.5,17,55.6,15.7,54
		c-0.6-0.8-1.1-1.7-1.7-2.6c-0.3-0.5-0.4-1,0.2-1.5c0.1-0.1,0.1-0.3,0.1-0.5c0-0.3,0-0.6,0-0.9c-0.2-2.7,2.1-3.7,3.9-3.5
		c1.7,0.2,2.9,1,3.2,2.3C21.6,47.8,21.5,48.3,21.6,48.8z M15.2,50.3c-0.9,0.1-1,0.3-0.6,1c0.5,0.8,0.9,1.6,1.5,2.3
		c1.1,1.4,2.6,1.4,3.7,0c0.5-0.7,0.9-1.4,1.3-2.1c0.5-0.9,0.5-1-0.5-1.2c0.1-0.4,0.2-0.8,0.3-1.2c-1.7,0-3.1-0.5-4.4-1.5
		c-0.2-0.1-0.5-0.1-0.7,0c-0.6,0.2-0.9,0.8-0.9,1.5C15,49.4,15.1,49.8,15.2,50.3z"/>
	<path class="st0" d="M15.3,30.7c-2.9,0-5.8,0-8.8,0c0-0.8,0-1.6,0-2.4c0-0.1,0.2-0.3,0.4-0.3c2.7,0,5.3,0,8,0
		c0.1,0,0.4,0.2,0.4,0.3C15.4,29.2,15.3,29.9,15.3,30.7z"/>
	<path class="st0" d="M15.3,36.2c-3,0-5.8,0-8.7,0c0-0.9,0-1.7,0-2.6c0.2,0,0.4,0,0.5,0c2.5,0,5,0,7.6,0c0.5,0,0.7,0.1,0.7,0.6
		C15.3,34.8,15.3,35.5,15.3,36.2z"/>
	<path class="st0" d="M6.6,41.7c0-0.9,0-1.7,0-2.6c2.9,0,5.8,0,8.7,0c0,0.9,0,1.7,0,2.6C12.4,41.7,9.5,41.7,6.6,41.7z"/>
	<path class="st0" d="M53.4,30.7c0-0.9,0-1.7,0-2.6c2.9,0,5.8,0,8.7,0c0,0.8,0,1.7,0,2.6C59.2,30.7,56.3,30.7,53.4,30.7z"/>
	<path class="st0" d="M53.4,33.6c2.9,0,5.8,0,8.7,0c0,0.9,0,1.7,0,2.6c-2.9,0-5.7,0-8.7,0C53.4,35.4,53.4,34.5,53.4,33.6z"/>
	<path class="st0" d="M53.4,39.1c2.9,0,5.7,0,8.6,0c0,0.9,0,1.7,0,2.6c-2.9,0-5.7,0-8.6,0C53.4,40.9,53.4,40,53.4,39.1z"/>
	<path class="st0" d="M31.9,24.6c0-1.6,0-3.1,0-4.7c1.6,0,3.1,0,4.7,0c0,1.6,0,3.1,0,4.7C35.1,24.6,33.5,24.6,31.9,24.6z"/>
	<path class="st0" d="M44.5,19.8c0,1.6,0,3.2,0,4.8c-0.7,0-1.3,0-2,0c-0.8,0-1.5,0-2.3,0c-0.4,0-0.5-0.1-0.5-0.5c0-1.3,0-2.6,0-3.8
		c0-0.2,0.2-0.5,0.3-0.5C41.5,19.8,43,19.8,44.5,19.8z"/>
	<path class="st0" d="M28.9,19.9c0,1.6,0,3.1,0,4.7c-1.6,0-3.1,0-4.7,0c0-1.6,0-3.1,0-4.7C25.7,19.9,27.2,19.9,28.9,19.9z"/>
	<path class="st0" d="M24.1,33.4c0-1.6,0-3.1,0-4.7c1.5,0,3.1,0,4.7,0c0,1.5,0,3.1,0,4.7C27.3,33.4,25.7,33.4,24.1,33.4z"/>
	<path class="st0" d="M31.9,33.4c0-1.6,0-3.1,0-4.7c1.6,0,3.1,0,4.7,0c0,1.6,0,3.1,0,4.7C35.1,33.4,33.5,33.4,31.9,33.4z"/>
	<path class="st0" d="M39.8,33.4c0-1.6,0-3.1,0-4.7c1.6,0,3.1,0,4.7,0c0,1.5,0,3.1,0,4.7C42.9,33.4,41.4,33.4,39.8,33.4z"/>
</g>
</svg>
