<?xml version="1.0" encoding="utf-8"?>
<!-- Generator: Adobe Illustrator 23.0.3, SVG Export Plug-In . SVG Version: 6.00 Build 0)  -->
<svg version="1.1" id="Layer_1" xmlns="http://www.w3.org/2000/svg" xmlns:xlink="http://www.w3.org/1999/xlink" x="0px" y="0px"
	 viewBox="0 0 69.1 66.6" style="enable-background:new 0 0 69.1 66.6;" xml:space="preserve">
<style type="text/css">
	.st0{fill:#FFFFFF;}
</style>
<g>
	<path class="st0" d="M88.2,63.4c0.6,0,1.2,0,2,0c0-4.7,0-9.2,0-13.9c3.4,0,6.5,0,9.9,0c0,4.5,0,9,0,13.7c1.5,0,2.7,0,4,0
		c0-7.9,0-15.7,0-23.7c3.4,0,6.6,0,10,0c0,7.8,0,15.7,0,23.7c1.4,0,2.5,0,4,0c0-10.5,0-21.1,0-31.8c3.5,0,6.7,0,10,0
		c0,10.6,0,21,0,31.7c1.4,0,2.6,0,4.1,0c0-2.2,0-4.4,0-6.6c0-6.4,0-19.3,0-19.3s0-1.2,0.1-2.2c0.3,0,1.5,0,1.8,0c0-1.3,0-2.6,0-3.9
		c-8.9-3.4-13.1-9.9-11.7-17.4c1.4-7.4,7.6-12.6,15-12.5c7.3,0.2,13.4,5.4,14.7,12.7c1.3,7.5-3.1,14-11.7,17.2c0,1.2,0,2.5,0,4
		c0.6,0,1.2,0,1.9,0c0,9.2,0,18.8,0,28.1c3.3,0,6.5,0,9.9,0c0,0.9,0.1,1.5,0.1,2.1c-21.4,0-42.7,0-64.1,0
		C88.2,64.7,88.2,64,88.2,63.4z M126.1,63.2c0-10.1,0-19.9,0-29.8c-2,0-3.9,0-5.7,0c0,10,0,19.9,0,29.8
		C122.4,63.2,124.2,63.2,126.1,63.2z M138.3,29.5c8.9-2.9,13-8.1,11.9-15.1c-1-6.3-6.3-11-12.6-11.1c-6.5-0.1-12.2,4.4-13.2,11
		c-1.2,8.1,4,13.9,11.8,15.3c0,1.2,0,2.5,0,3.7c0,0.9,0,1.7,0,1.7s1,0,2,0C138.3,33.1,138.3,31.3,138.3,29.5z M140.1,63.2
		c0-8.7,0-17.3,0-25.7c-2,0-3.9,0-5.7,0c0,8.7,0,17.1,0,25.7C136.3,63.2,138.1,63.2,140.1,63.2z M112,63.2c0-7.4,0-14.6,0-21.7
		c-2,0-3.9,0-5.7,0c0,7.3,0,14.5,0,21.7C108.3,63.2,110.1,63.2,112,63.2z M92.3,51.4c0,4.1,0,7.9,0,11.8c2,0,3.9,0,5.8,0
		c0-2.1,0-4,0-5.9c0-2,0-3.9,0-5.9C96,51.4,94.3,51.4,92.3,51.4z"/>
	<path class="st0" d="M120.1,23.4c0,2,0,3.8,0,5.7c-0.2,0.1-0.4,0.3-0.6,0.4c-0.6-0.7-1.3-1.4-2.1-2.2c-1.8,1.9-4,3.9-6,6.1
		c-1.2,1.3-2.5,2.1-4.3,1.8c-3.2-0.6-5.7,0.6-7.9,3c-2.9,3-6.1,5.7-9.2,8.5c-1.4-0.7-1.6-1.3-0.4-2.3c3.8-3.4,7.5-6.9,11.3-10.3
		c0.7-0.6,2-1,2.9-0.9c3.7,0.5,6.4-0.8,8.6-3.6c1.1-1.4,2.6-2.6,3.9-3.8c-0.8-0.6-1.6-1.2-2.3-1.8c0.1-0.2,0.2-0.5,0.3-0.7
		C116.2,23.4,118,23.4,120.1,23.4z"/>
	<path class="st0" d="M137.4,5.3c6,0.1,10.9,5,10.9,11.1s-5.1,11.1-11.3,10.9c-6-0.1-10.8-5.2-10.7-11.2
		C126.3,10.1,131.3,5.2,137.4,5.3z M146.2,16.4c0.1-5-4-9.1-8.9-9.1c-4.9,0-8.9,3.9-9.1,8.8c-0.1,5,3.8,9.2,8.8,9.3
		C142,25.4,146.2,21.4,146.2,16.4z"/>
	<path class="st0" d="M137.4,9.2c1.2,1.4,2.2,2.4,3,3.5c0.4,0.5,0.4,1.2,0.5,1.8c-0.6-0.1-1.2-0.2-1.8-0.4c-0.2-0.1-0.4-0.2-0.8-0.5
		c0,2.9,0,5.6,0,8.3c-1.4,0.6-2.1,0.5-2.1-1.2c0.1-2.3,0-4.6,0-7.3c-0.7,0.5-1,0.9-1.4,1s-1-0.1-1.5-0.1c0.1-0.4,0-1,0.2-1.3
		C134.7,11.9,135.9,10.7,137.4,9.2z"/>
	<rect x="146.1" y="35.4" class="st0" width="6.1" height="1.9"/>
	<rect x="146.1" y="39.3" class="st0" width="6.1" height="1.9"/>
	<rect x="146.1" y="43.4" class="st0" width="6.1" height="1.9"/>
	<rect x="146.1" y="47.5" class="st0" width="6.1" height="1.9"/>
	<rect x="146.1" y="51.6" class="st0" width="6.1" height="1.9"/>
	<rect x="146.1" y="55.7" class="st0" width="6.1" height="1.9"/>
	<rect x="146.1" y="59.8" class="st0" width="6.1" height="1.9"/>
</g>
<g>
	<path class="st0" d="M22.4,42.6c0,0.1,0,0.2,0,0.3c0.7,0.2,1.3,0.3,2,0.5c0-12.9,0-25.8,0-38.7c7,0,14,0,21.1,0
		c0,12.8,0,25.6,0,38.5c0.6-0.1,1.1-0.2,1.6-0.3c0.4,0,0.5-0.2,0.5-0.5c0-6.7,0-13.4,0-20.1c0-2.6,0-5.3,0-7.9c0-3.4,0-6.9,0-10.3
		c0-1-0.3-1.3-1.3-1.3c-3.2,0-6.4,0-9.6,0c-1.7,0-3.3,0-5,0c-2.7,0-5.5,0-8.2,0c-0.5,0-0.9,0.4-1,1c0,0.2,0,0.4,0,0.6
		c0,4.8,0,9.7,0,14.5C22.4,26.8,22.4,34.7,22.4,42.6z"/>
	<path class="st0" d="M43.9,50.5c1.8,0.7,3.6,1,5.5,1.2c4,0.4,8.1,0.4,12.1-0.4c1.5-0.3,2.9-0.6,4.2-1.4c1.3-0.9,1.4-2.4,0.1-3.3
		c-0.9-0.7-1.9-1-3-1.3c-2.7-0.7-5.5-0.8-8.6-0.9c-1,0-2.2,0.1-3.5,0.1c-2,0.2-4.1,0.3-6,1c-0.9,0.3-1.8,0.6-2.5,1.3
		c-0.7,0.7-0.8,1.6-0.1,2.5C42.5,49.9,43.1,50.2,43.9,50.5z M45.3,47.4c1.2-0.3,2.5-0.5,3.7-0.7c2.3-0.3,4.6-0.4,7-0.3
		c2.3,0.1,4.5,0.3,6.7,0.9c0.6,0.2,1.2,0.4,1.8,0.7c0,0.1,0,0.1,0,0.2c-0.5,0.2-1,0.4-1.5,0.6c-2.2,0.7-4.5,0.9-6.8,1
		c-2.3,0.1-4.6,0.1-6.8-0.2c-1.6-0.2-3.2-0.5-4.7-1c-0.4-0.1-0.7-0.3-1.1-0.5c0-0.1,0-0.1,0-0.2C44.2,47.8,44.8,47.5,45.3,47.4z"/>
	<path class="st0" d="M3.4,49.7c0.7,0.5,1.5,0.8,2.3,1.1c2.1,0.6,4.2,0.9,6.4,1c3.4,0.2,6.9,0.1,10.3-0.5c1.4-0.3,2.9-0.6,4.1-1.4
		c0.5-0.3,0.9-0.7,1-1.3c0.2-0.8-0.1-1.5-0.9-2.1c-1.2-0.9-2.6-1.2-4-1.5c-2.6-0.5-5.2-0.7-8.3-0.7c-0.5,0-1.6,0-2.6,0.1
		c-1.8,0.1-3.6,0.3-5.4,0.8c-1.1,0.3-2.2,0.6-3.1,1.3C2.1,47.6,2.1,48.9,3.4,49.7z M4.6,48c0.6-0.2,1.2-0.5,1.8-0.7
		c2.1-0.6,4.2-0.8,6.4-0.9c3-0.2,5.9-0.1,8.8,0.4c1.2,0.2,2.3,0.6,3.5,1c0.2,0,0.3,0.2,0.5,0.3c-0.3,0.2-0.4,0.3-0.7,0.4
		c-1.1,0.3-2.3,0.7-3.4,0.9c-1,0.2-2.1,0.3-3.2,0.4c-2.1,0.1-4.2,0.1-6.4,0c-1.9-0.1-3.8-0.4-5.7-0.9c-0.6-0.2-1.1-0.4-1.7-0.6
		C4.6,48.2,4.6,48.1,4.6,48z"/>
	<path class="st0" d="M43.5,28.4c0-4.7-3.7-8.5-8.4-8.6c-4.7-0.1-8.5,3.7-8.6,8.3c-0.1,4.9,3.9,8.6,8.3,8.7
		C39.4,37,43.5,33.2,43.5,28.4z M35,34.9c-3.5,0-6.6-2.9-6.6-6.5c0-3.6,2.9-6.5,6.5-6.5c3.6,0,6.5,2.9,6.5,6.5
		C41.5,32,38.4,34.8,35,34.9z"/>
	<path class="st0" d="M11.1,14.7c0.6,1.9,1.2,3.8,1.8,5.6c1.1,3.5,2.2,6.9,3.3,10.4c0.6,2,1.2,3.9,1.9,5.9c0.6,1.9,1.2,3.9,1.9,5.8
		c0,0.1,0.2,0.2,0.3,0.3c0,0,0.1-0.1,0.1-0.1c0-0.1,0-0.1,0-0.2c0-1.8,0-3.5,0-5.3c0-0.1,0-0.2-0.1-0.3c-0.4-1.4-0.9-2.8-1.3-4.2
		c-0.9-2.9-1.9-5.9-2.8-8.8c-0.8-2.4-1.5-4.9-2.3-7.3c-0.6-2-1.2-3.9-1.9-5.9c1.6-0.5,3.2-1,4.8-1.5c1.1-0.3,2.2-0.7,3.2-1
		c0.1,0,0.3-0.1,0.3-0.2c0-0.6,0-1.3,0-1.9C20.1,5.9,20,5.9,19.8,6c-1.9,0.6-3.8,1.2-5.7,1.8c-1.2,0.4-2.4,0.8-3.6,1.1
		c-0.7,0.2-1,0.7-0.8,1.4C10.2,11.8,10.6,13.3,11.1,14.7z"/>
	<path class="st0" d="M54.1,20.6c-1.3,4-2.6,8-3.8,12.1c-0.2,0.6-0.5,1.3-0.6,2c-0.1,2.1,0,4.2,0,6.2c0,0,0.1,0,0.1,0
		c0-0.1,0.1-0.2,0.1-0.3c1.1-3.5,2.2-7.1,3.4-10.6c0.8-2.5,1.6-4.9,2.4-7.4c0.9-2.9,1.9-5.9,2.8-8.8c0.3-1.1,0.7-2.2,1-3.2
		c0.2-0.7,0-1.2-0.7-1.4c-0.4-0.1-0.7-0.2-1.1-0.3c-2.5-0.8-5-1.6-7.6-2.4c-0.1,0-0.2-0.1-0.4-0.1c0,0.6,0,1.2,0,1.8
		c0,0.2,0.1,0.4,0.3,0.4c1.5,0.5,3.1,1,4.6,1.4c0.9,0.3,1.7,0.6,2.6,0.8c0,0.2,0,0.3-0.1,0.4C56.1,14.2,55.1,17.4,54.1,20.6z"/>
	<path class="st0" d="M7.1,27.6c1.8,2.8,3.6,5.6,5.3,8.4c1.3,2,2.6,4.1,3.8,6.1c0.1,0.1,0.2,0.3,0.3,0.3c0.3,0,0.7,0,1.1,0
		c-0.3-0.9-0.5-1.7-0.8-2.6c-0.1-0.4-0.2-0.9-0.4-1.2c-0.5-0.9-1.1-1.8-1.7-2.7c-1.5-2.4-3.1-4.9-4.6-7.3c-1.6-2.5-3.2-5.1-4.8-7.6
		c-0.1-0.2-0.3-0.4-0.4-0.6c0.1-0.1,0.2-0.1,0.3-0.2c1.4-0.9,2.9-1.8,4.3-2.7c0.2-0.1,0.3-0.2,0.2-0.5c-0.2-0.5-0.4-1.1-0.6-1.7
		c-0.1,0-0.1,0.1-0.2,0.1c-1.3,0.8-2.5,1.6-3.8,2.4c-0.7,0.4-1.4,0.8-2,1.3c-0.6,0.4-0.7,1-0.4,1.5C4.1,22.9,5.6,25.2,7.1,27.6z"/>
	<path class="st0" d="M59.7,17.5c1,0.6,2,1.3,3.1,1.9c0.5,0.3,1,0.6,1.5,0.9c-0.2,0.4-0.4,0.7-0.6,1c-0.9,1.5-1.9,3-2.8,4.5
		c-1.2,1.9-2.4,3.8-3.6,5.7c-1.1,1.8-2.3,3.6-3.4,5.4c-0.4,0.6-0.9,1.3-1.2,1.9c-0.5,1.2-0.8,2.4-1.2,3.6c0.3,0,0.6,0,0.9,0
		c0.3,0,0.4-0.1,0.5-0.3c0.9-1.5,1.9-3,2.9-4.5c1.2-1.9,2.3-3.7,3.5-5.6c0.9-1.5,1.9-2.9,2.8-4.4c1.4-2.3,2.8-4.5,4.3-6.8
		c0.5-0.8,0.4-1.3-0.4-1.8c-0.8-0.5-1.5-0.9-2.3-1.4c-1.2-0.7-2.4-1.5-3.6-2.3c-0.2,0.6-0.3,1.1-0.5,1.6
		C59.4,17.2,59.5,17.3,59.7,17.5z"/>
	<path class="st0" d="M25.7,60.5c-2.2,0.8-4.4,1.1-6.7,1.3C15.6,62,12.3,62,9,61.6c-1.5-0.2-3-0.5-4.5-1c-0.7-0.3-1.3-0.6-2-0.9
		c0,0.1,0,0.1-0.1,0.2c0,0.1,0,0.2,0,0.3c0,0.8,0.5,1.4,1.1,1.8c1.1,0.7,2.3,1,3.5,1.3c2.3,0.5,4.7,0.7,7.1,0.7
		c3.4,0,6.8-0.2,10.1-1c0.9-0.2,1.7-0.6,2.4-1.1c0.8-0.5,1.1-1.4,0.8-2.1C26.9,59.9,26.3,60.2,25.7,60.5z"/>
	<path class="st0" d="M64.1,60.7c-2,0.6-4.1,0.9-6.2,1.1c-3.1,0.2-6.2,0.2-9.2-0.1c-1.6-0.2-3.2-0.5-4.8-1c-0.8-0.3-1.5-0.6-2.3-1
		c-0.3,0.9,0.1,1.7,1,2.2c1.1,0.7,2.3,1,3.6,1.3c2.3,0.5,4.7,0.7,7.1,0.7c3.2,0,6.3-0.1,9.5-0.9c1-0.2,2-0.6,2.9-1.2
		c0.8-0.5,1.2-1.5,0.9-2.2C65.8,60,65,60.4,64.1,60.7z"/>
	<path class="st0" d="M44.9,58.9c2,0.5,4,0.8,6,0.9c3.5,0.2,7,0.2,10.4-0.5c1.1-0.2,2.3-0.6,3.4-0.9c0.7-0.2,1.4-0.7,1.8-1.4
		c0.2-0.4,0.3-0.9,0.1-1.3c-0.7,0.3-1.4,0.7-2.2,0.9c-2.5,0.8-5.1,1.2-7.7,1.3c-2.4,0.1-4.9,0.1-7.3-0.1c-1.9-0.2-3.8-0.5-5.6-1.1
		c-0.7-0.3-1.5-0.6-2.2-0.9c-0.2,0.6-0.1,1.1,0.4,1.6C42.7,58.2,43.8,58.6,44.9,58.9z"/>
	<path class="st0" d="M25.5,52.5c-2.1,0.7-4.2,1.1-6.4,1.2C15.6,54,12,54,8.4,53.4c-1.8-0.3-3.6-0.7-5.3-1.5
		c-0.2-0.1-0.4-0.2-0.6-0.3c-0.3,0.8,0,1.7,0.8,2.2c0.7,0.4,1.5,0.8,2.3,1.1c1.8,0.5,3.6,0.8,5.5,0.9c3.7,0.3,7.5,0.2,11.2-0.5
		c1.5-0.3,2.9-0.6,4.2-1.4c0.9-0.6,1.3-1.4,1-2.2C26.8,51.9,26.2,52.3,25.5,52.5z"/>
	<path class="st0" d="M25.5,56.5c-2.5,0.9-5.1,1.2-7.8,1.3C14.8,58,11.9,58,9,57.5c-2-0.3-4-0.7-5.8-1.6c-0.2-0.1-0.4-0.2-0.6-0.3
		c-0.3,0.8,0.1,1.7,0.9,2.2c0.7,0.4,1.5,0.8,2.4,1c1.6,0.5,3.3,0.7,5,0.9c3.8,0.3,7.7,0.3,11.5-0.4c1.5-0.3,2.9-0.6,4.2-1.4
		c0.7-0.4,1.4-1.5,1-2.2C26.8,56,26.2,56.3,25.5,56.5z"/>
	<path class="st0" d="M65,52.4c-2.2,0.9-4.5,1.2-6.8,1.4C55,54,51.8,54,48.6,53.6c-2.4-0.3-4.8-0.7-7-2c-0.3,0.9,0,1.7,0.9,2.2
		c0.7,0.4,1.5,0.8,2.2,1c1.8,0.6,3.7,0.8,5.6,1c3.4,0.3,6.8,0.2,10.1-0.3c1.4-0.2,2.9-0.5,4.2-1.1c0.7-0.3,1.4-0.7,1.8-1.4
		c0.2-0.4,0.3-0.9,0.1-1.3C66,51.9,65.5,52.2,65,52.4z"/>
	<path class="st0" d="M39.5,52c-3.3,0-6.6,0-9.8,0c-0.2,0.7-0.3,1.3-0.5,2c3.6,0,7.2,0,10.8,0c-0.1-0.3-0.2-0.6-0.3-1
		C39.6,52.7,39.5,52.4,39.5,52z"/>
	<path class="st0" d="M35,15.9c0.9,0,1.7,0,2.6,0c0.7,0,1.1-0.4,1.1-1c0-0.6-0.5-1-1.1-1c-1.7,0-3.4,0-5.2,0c-0.6,0-1.1,0.4-1.1,1
		c0,0.6,0.4,1,1.1,1C33.3,15.9,34.2,15.9,35,15.9z"/>
	<path class="st0" d="M37.6,40.9c-1.7,0-3.4,0-5.1,0c-0.7,0-1.1,0.4-1.1,1c0,0.6,0.4,1,1.1,1c0.9,0,1.7,0,2.6,0c0.8,0,1.7,0,2.5,0
		c0.2,0,0.4,0,0.6-0.1c0.4-0.2,0.6-0.7,0.5-1.1C38.6,41.2,38.2,40.9,37.6,40.9z"/>
	<path class="st0" d="M43.7,14.9c0-0.5-0.4-1-0.9-1c-0.5,0-1,0-1.5,0c-0.5,0-0.9,0.5-0.9,1c0,0.5,0.4,0.9,0.9,1c0.2,0,0.5,0,0.7,0
		c0.2,0,0.5,0,0.7,0C43.3,15.8,43.7,15.4,43.7,14.9z"/>
	<path class="st0" d="M28.7,15.9c0.6,0,1-0.4,1-0.9c0-0.5-0.4-1-0.9-1.1c-0.5,0-1,0-1.5,0c-0.5,0-0.9,0.5-0.9,1.1
		c0,0.5,0.4,0.9,1,0.9c0.2,0,0.5,0,0.7,0c0,0,0,0,0,0C28.2,15.9,28.5,15.9,28.7,15.9z"/>
	<path class="st0" d="M42.1,42.9C42.1,42.9,42.1,42.9,42.1,42.9c0.3,0,0.5,0,0.8,0c0.5,0,0.9-0.4,0.9-0.9c0-0.5-0.3-1-0.8-1.1
		c-0.6-0.1-1.2-0.1-1.8,0c-0.5,0.1-0.9,0.6-0.8,1.1c0,0.5,0.4,0.8,1,0.9C41.6,42.9,41.8,42.9,42.1,42.9z"/>
	<path class="st0" d="M29.7,42c0-0.5-0.4-1-0.9-1.1c-0.5,0-1,0-1.5,0c-0.5,0-0.9,0.6-0.9,1.1c0,0.5,0.4,0.9,1,0.9c0.2,0,0.5,0,0.7,0
		c0,0,0,0,0,0c0.2,0,0.5,0,0.7,0C29.3,42.9,29.7,42.5,29.7,42z"/>
	<path class="st0" d="M39.5,27.8c0-0.1-0.1-0.3-0.1-0.4c-0.2-0.8-0.7-1.4-1.5-1.6c-0.8-0.2-1.6,0-2.1,0.8c-0.3,0.6-0.5,1.2-0.8,1.8
		c-0.2,0.4-0.3,0.8-0.5,1.1c-0.4,0.5-1.4,0.4-1.5-0.3c-0.1-0.5-0.1-1,0-1.6c0.1-0.5,0.5-0.9,0.8-1.3c0.2-0.2,0.3-0.5,0-0.8
		c-0.2-0.2-0.5-0.3-0.8-0.1c-0.2,0.1-0.4,0.3-0.5,0.5c-0.3,0.6-0.6,1.1-0.9,1.7c0,0,0.1,0.1,0.1,0.1c-0.2,0-0.4,0-0.6,0
		c-0.3,0-0.5,0.2-0.5,0.5c0,0.3,0.2,0.5,0.5,0.5c0.1,0,0.2,0,0.2,0c0.3,0,0.4,0.1,0.5,0.4c0.3,1.7,1.6,2.1,2.8,1.8
		c0.8-0.2,1.2-0.9,1.5-1.6c0.3-0.7,0.5-1.3,0.8-2c0.1-0.3,0.4-0.4,0.7-0.4c0.3,0,0.5,0.2,0.6,0.5c0.1,0.2,0.1,0.4,0.2,0.6
		c0,0.7-0.1,1.2-0.6,1.7c-0.3,0.3-0.3,0.6-0.1,0.9c0.3,0.3,0.6,0.3,0.9,0c0.2-0.2,0.4-0.4,0.5-0.7c0.2-0.4,0.3-0.8,0.5-1.3
		c0.4-0.1,1.1,0.2,1.1-0.5C40.7,27.7,40,28,39.5,27.8z"/>
</g>
</svg>
