<?xml version="1.0" encoding="utf-8"?>
<!-- Generator: Adobe Illustrator 23.0.3, SVG Export Plug-In . SVG Version: 6.00 Build 0)  -->
<svg version="1.1" id="Layer_1" xmlns="http://www.w3.org/2000/svg" xmlns:xlink="http://www.w3.org/1999/xlink" x="0px" y="0px"
	 viewBox="0 0 69.1 66.6" style="enable-background:new 0 0 69.1 66.6;" xml:space="preserve">
<style type="text/css">
	.st0{fill:#8F1D77;}
</style>
<g>
	<g>
		<rect x="-213.4" y="72.4" class="st0" width="2" height="5.8"/>
		<polygon class="st0" points="-206.6,72.4 -205.8,69.2 -207.2,69.2 -210.2,72.4 -210.2,78.1 -203.2,78.1 -202.1,72.4 		"/>
	</g>
	<path class="st0" d="M-173.5,68c-3.2,0-5.8,2.6-5.8,5.8c0,2,1,3.7,2.5,4.8l-1.5,2.5c0,0,6.3-1.4,7.6-2.3c0,0,0,0,0,0
		c1.8-1,2.9-2.9,2.9-5C-167.7,70.6-170.3,68-173.5,68z M-173,76h-3.2v-1h3.2V76z M-170.5,74.2h-5.8v-1h5.8V74.2z M-170.5,72.4h-5.8
		v-1h5.8V72.4z"/>
	<g>
		<path class="st0" d="M-186.7,34.8c-0.1,0-0.1,0-0.2,0v-3.4c0,0-1.3,2.6-6.5,2.6h-2.7c0,0-0.5,0.1-0.6,0.6h-1.1v2.6h1.3l2.4,5.6
			h2.2c0,0,0.4-0.3-0.4-1.4c0,0-1-1.2-1.6-3.5c0,0,4.1-1,7.1,2.5v-3.4c0.1,0,0.1,0,0.2,0c0.6,0,1.1-0.5,1.1-1.1
			C-185.7,35.2-186.1,34.8-186.7,34.8z"/>
		<path class="st0" d="M-185.3,34.5c0.1,0.1,0.2,0.1,0.3,0l1.1-0.9c0.1-0.1,0.1-0.2,0-0.3l0,0c-0.1-0.1-0.2-0.1-0.3,0l-1.1,0.9
			C-185.4,34.2-185.5,34.4-185.3,34.5L-185.3,34.5z"/>
		<path class="st0" d="M-185,37.1c-0.1-0.1-0.2-0.1-0.3,0l0,0c-0.1,0.1-0.1,0.2,0,0.3l1.1,0.9c0.1,0.1,0.2,0.1,0.3,0l0,0
			c0.1-0.1,0.1-0.2,0-0.3L-185,37.1z"/>
		<path class="st0" d="M-183.4,35.6h-1.4c-0.1,0-0.2,0.1-0.2,0.2v0c0,0.1,0.1,0.2,0.2,0.2h1.4c0.1,0,0.2-0.1,0.2-0.2v0
			C-183.2,35.7-183.3,35.6-183.4,35.6z"/>
	</g>
	<g>
		<path class="st0" d="M-190.6,50.3c-4.8,0-8.8,3.9-8.8,8.8c0,3.3,1.8,6.2,4.5,7.7v2.7h0.5v1.3h0.7l0,1.3h6v-1.3h0.9v-1.6h0.5v-2.5
			c2.7-1.5,4.5-4.4,4.5-7.6C-181.8,54.3-185.8,50.3-190.6,50.3z M-187.7,65.5v1.9c0,0.1,0,0.2,0,0.2h-5.7c0,0,0,0,0-0.2v-1.9
			c-2.4-1.1-4.2-3.5-4.2-6.4c0-3.9,3.1-7,7-7c3.9,0,7,3.1,7,7C-183.6,61.9-185.3,64.4-187.7,65.5z"/>
		<rect x="-191.6" y="45.8" class="st0" width="2" height="3.2"/>
		
			<rect x="-183.6" y="49.3" transform="matrix(0.7021 -0.7121 0.7121 0.7021 -90.0794 -114.6457)" class="st0" width="3.2" height="2"/>
		
			<rect x="-199.8" y="48.7" transform="matrix(0.7121 -0.7021 0.7021 0.7121 -92.5637 -125.0673)" class="st0" width="2" height="3.2"/>
		<rect x="-203.7" y="56.5" class="st0" width="3.2" height="1.9"/>
		<rect x="-180.5" y="56.5" class="st0" width="3.2" height="1.9"/>
	</g>
	<path class="st0" d="M-182.2,79c-2.6,1.1-5.4,1.7-8.4,1.7c-2.7,0-5.4-0.5-7.8-1.4l-1.8,1.6c2.9,1.3,6.1,2,9.5,2
		c3.5,0,6.9-0.8,9.9-2.1L-182.2,79z M-214.5,58.9c0,3.3,0.7,6.4,1.8,9.2l1.6-1.8c-0.8-2.3-1.3-4.8-1.3-7.4c0-8.6,5-16.1,12.3-19.6
		v-2.4C-208.5,40.6-214.5,49-214.5,58.9z M-181.9,36.5v2.3c7.8,3.3,13.2,11.1,13.2,20c0,2.4-0.4,4.8-1.1,6.9
		c0.5,0.5,1.1,1.1,1.6,1.8c1.1-2.7,1.6-5.6,1.6-8.7C-166.6,48.7-172.9,40-181.9,36.5z"/>
	<circle class="st0" cx="-190.5" cy="58.5" r="3.6"/>
</g>
<g>
	<path class="st0" d="M-146.9,111.5c-1.6-0.4-3.1-0.7-4.6,0.6c-1.9,1.8-4,3.3-6,5c1,1.7,0.6,3.2-1.3,4c-0.9,0.4-2,0.5-3,0.4
		c-1.4-0.1-2.8-0.5-4.2-0.7c-2.1-0.3-4.2-0.8-6.4-0.1c-0.2,0.1-0.6-0.1-0.9-0.2c0.2-0.2,0.4-0.7,0.6-0.7c1.5-0.2,3-0.4,4.5-0.3
		c2.2,0.2,4.3,0.7,6.4,1c0.4,0.1,0.9,0.1,1.4,0c1.4-0.2,2.4-1.1,2.4-2c0-0.9-0.8-1.5-2.3-1.7c-4.4-0.7-8.6-1.9-12.7-3.6
		c-4.1-1.8-8.2-1.5-12,1.3c-1.2,0.9-2.3,1.8-3.6,2.7c1.3,2.9,2.6,5.9,3.9,8.9c0.2,0,0.2,0,0.3,0c0.4-0.1,0.7-0.3,1.1-0.5
		c2.5-1.4,5.1-1.4,7.8-0.5c2.2,0.7,4.5,1.3,6.8,1.9c2.5,0.7,4.9,0.6,7.2-0.8c2.1-1.3,4.3-2.6,6.6-3.5c4.3-1.8,6.1-5.9,8.6-9.3
		C-145.7,112.8-146.1,111.7-146.9,111.5z"/>
	<path class="st0" d="M-160.4,85.2c-1.5-0.7-2.6-0.2-3.4,1.4c-0.9-1.6-1.9-2-3.4-1.4c-1.4,0.6-2.2,1.6-2.3,3.2c-0.1,2.5,0,5,0,7.5
		c0,0.9,0.4,1.6,1.2,1.8c0.8,0.2,0.9,0.7,0.9,1.4c0.1,3.3,0.2,6.5,0.3,9.8c0,1.4,0.5,1.9,1.9,1.9c0.9,0,1.8,0,2.6,0
		c1.6,0,1.9-0.4,2-1.9c0.1-3.3,0.2-6.7,0.3-10c0-0.3,0.3-0.9,0.5-0.9c1.1-0.4,1.6-1.2,1.6-2.4c0-2.2,0-4.4,0-6.5
		C-158.1,87.2-158.8,85.9-160.4,85.2z"/>
	<path class="st0" d="M-176.6,95.5c0,0.4,0,0.8,0,1.1c0.1,3.3,0.2,6.6,0.3,9.9c0,1.3,0.5,1.7,1.8,1.7c0.9,0,1.9,0,2.8,0
		c1.3,0,1.8-0.5,1.9-1.8c0.1-2.2,0.1-4.4,0.2-6.6c0-0.8,0-1.4-0.6-2.1c-0.4-0.5-0.6-1.4-0.6-2.1c-0.1-2,0-3.9,0-5.9
		c-0.1-2.4,0.5-4.4,2.8-5.6c-0.7-1-1.5-1.4-2.6-1.6c-1.2-0.3-1.7,0.7-2.3,1.3c-0.8-0.5-1.5-1.2-2.2-1.2c-2.1-0.2-3.6,1.5-3.7,3.6
		c0,2.1,0,4.2,0,6.3C-178.8,94-178.3,95.2-176.6,95.5z"/>
	<path class="st0" d="M-156.9,89.4c-0.1,2,0,3.9,0,5.9c0,1.1-0.2,2-0.9,2.8c-0.2,0.2-0.3,0.6-0.3,0.9c0.1,2.6,0.1,5.2,0.2,7.8
		c0,1,0.6,1.5,1.5,1.5c0.9,0,1.8,0,2.7,0c1.9,0,2.2-0.3,2.3-2.2c0.1-3.5,0.2-7,0.3-10.6c1.1-0.3,2-0.8,2-2c0.1-2.6,0.1-5.3,0-7.9
		c-0.1-1.4-1-2.4-2.4-2.9c-1.3-0.5-2.2-0.1-3,1c0,0.1-0.2,0.1-0.3,0.2c-0.7-0.6-1.2-1.7-2.5-1.4c-1,0.3-1.9,0.6-2.5,1.6
		C-157.6,85.3-156.8,87.1-156.9,89.4z"/>
	<path class="st0" d="M-194.9,117.7c1.9,4.4,3.8,8.6,5.7,12.9c1.6-0.9,3-1.8,4.5-2.6c-1.8-4-3.5-7.8-5.2-11.8
		C-191.7,116.7-193.3,117.2-194.9,117.7z"/>
	<path class="st0" d="M-173.1,81c2.1,0,3.7-1.6,3.8-3.6c0.1-2.1-1.6-3.8-3.7-3.8c-2,0-3.7,1.7-3.7,3.7
		C-176.7,79.4-175.1,81-173.1,81z"/>
	<path class="st0" d="M-154.6,81c2,0,3.7-1.6,3.7-3.7c0-2.1-1.7-3.7-3.8-3.7c-2,0-3.7,1.7-3.6,3.7C-158.3,79.4-156.7,81-154.6,81z"
		/>
	<path class="st0" d="M-163.8,83.5c2,0,3.7-1.6,3.7-3.7c0-2.1-1.6-3.7-3.6-3.7c-2.1,0-3.7,1.6-3.8,3.6
		C-167.6,81.8-165.9,83.5-163.8,83.5z"/>
</g>
<g>
	<path class="st0" d="M29.2,47.1c-0.2-0.2-0.3-0.3-0.4-0.4c-0.7-1-1.4-2-2.1-3.1c-0.2-0.3-0.4-0.4-0.8-0.4c-5.4,0-10.8,0-16.2,0
		c-0.2,0-0.3,0-0.5,0c-0.5-0.1-0.8-0.5-0.8-1c0-0.5,0.4-0.9,0.8-1c0.1,0,0.3,0,0.5,0c5.1,0,10.2,0,15.3,0c0.2,0,0.3,0,0.5,0
		c0-0.1,0-0.2-0.1-0.3c-0.3-1.1-0.7-2.1-0.9-3.2c-0.1-0.4-0.2-0.4-0.6-0.4c-5.6,0-11.2,0-16.8,0c-0.1,0-0.3,0-0.4,0
		c-0.5,0-0.9-0.4-0.9-0.9c0-0.5,0.4-1,0.9-1c0.1,0,0.3,0,0.5,0c5.5,0,11,0,16.5,0c0.2,0,0.3,0,0.5,0c0-1.3,0-2.6,0-3.9
		c-0.1,0-0.3,0-0.4,0c-4.8,0-9.5,0-14.3,0c-0.7,0-1.2-0.4-1.1-1c0-0.5,0.4-0.9,0.9-0.9c0.1,0,0.3,0,0.5,0c4.8,0,9.6,0,14.4,0
		c0.3,0,0.4-0.1,0.5-0.4c0.3-1.1,0.6-2.1,0.9-3.2c0-0.1,0.1-0.2,0.1-0.3c-0.2,0-0.4,0-0.5,0c-4.5,0-9.1,0-13.6,0
		c-0.8,0-1.2-0.4-1.2-1c0-0.5,0.4-0.9,0.9-0.9c0.2,0,0.3,0,0.5,0c4.8,0,9.6,0,14.4,0c0.3,0,0.5-0.1,0.6-0.4c2.9-5.2,7.2-8.7,13.2-10
		c7.6-1.7,14.1,0.5,19.4,6.1c3.3,3.5,5.1,7.8,5.3,12.6c0.4,7.1-2.1,13.1-7.7,17.7c-7.4,6.1-18.1,5.9-25.4-0.3
		C31.2,49.1,31,49,30.6,49c-8.3,0-16.5,0-24.8,0c-0.2,0-0.3,0-0.5,0c-0.5,0-0.9-0.5-0.9-1c0-0.5,0.4-0.9,0.9-0.9c0.1,0,0.3,0,0.5,0
		c7.6,0,15.2,0,22.7,0C28.8,47.1,28.9,47.1,29.2,47.1z M26,32.8c0.1,6,2.1,10.7,6.3,14.6c5.7,5.3,14.4,6.2,21.1,2.2
		c5.7-3.4,8.8-8.5,9.3-15c0.4-5-1.1-9.6-4.3-13.5c-5.5-6.7-15-8.6-22.6-4.4C29.3,20.4,26.3,26.1,26,32.8z"/>
	<path class="st0" d="M59.8,34c-0.3,5.6-2.9,10.5-8.8,13.5c-6.5,3.3-14.4,1.4-18.8-4.3c-4.4-5.7-4.6-13.4-0.4-19.2
		c3.2-4.4,7.7-6.7,13.3-6.4c4.5,0.2,8.2,2.2,11.1,5.7C58.6,26.2,59.8,29.6,59.8,34z M57.9,33.7c-0.1-4.4-1.5-7.8-4.3-10.6
		c-4.7-4.6-12.3-5-17.4-0.9C29.6,27.4,29,37,34.7,43c4.2,4.4,10.6,5.5,15.9,2.6C55.5,42.9,57.7,38.7,57.9,33.7z"/>
	<path class="st0" d="M45.8,43.8c-1.3,0-2.4,0-3.7,0c0-0.5,0-1,0-1.5c0-0.7,0-0.7-0.7-0.9c-0.8-0.2-1.6-0.5-2.5-0.7
		c-0.2-0.1-0.3-0.2-0.3-0.5c0-1,0-2.1,0-3.1c0.7,0.3,1.3,0.5,1.9,0.7c1.2,0.4,2.5,0.7,3.8,0.5c0.3,0,0.7-0.1,1-0.3
		c0.7-0.3,0.8-1,0.3-1.5c-0.2-0.3-0.6-0.5-0.9-0.6c-0.9-0.4-1.8-0.7-2.6-1.2c-0.7-0.4-1.5-0.7-2.2-1.2c-2.3-1.8-2.2-5.2,0.2-6.9
		c0.5-0.4,1.1-0.6,1.7-0.9c0.3-0.1,0.3-0.2,0.3-0.5c0-0.8,0-1.7,0-2.5c1.2,0,2.4,0,3.7,0c0,0.7,0,1.5,0,2.2c0,0.3,0.1,0.4,0.4,0.5
		c1.1,0.1,2.2,0.4,3.1,0.9c0.1,0.1,0.2,0.2,0.2,0.3c0,1.1,0,2.1,0,3.3c-0.2-0.1-0.3-0.1-0.4-0.2c-1.5-0.9-3.1-1.5-4.8-1.5
		c-0.3,0-0.6,0.1-0.9,0.1c-0.4,0.1-0.7,0.4-0.7,0.9c-0.1,0.4,0.2,0.7,0.6,0.9c0.8,0.4,1.6,0.7,2.4,1.1c1.2,0.5,2.3,1.1,3.3,2
		c2.2,2.1,1.9,6.7-1.8,7.9c-0.3,0.1-0.6,0.2-0.9,0.2c-0.3,0-0.4,0.2-0.4,0.5C45.8,42.6,45.8,43.2,45.8,43.8z"/>
</g>
</svg>
