<?xml version="1.0" encoding="utf-8"?>
<!-- Generator: Adobe Illustrator 23.0.3, SVG Export Plug-In . SVG Version: 6.00 Build 0)  -->
<svg version="1.1" id="Layer_1" xmlns="http://www.w3.org/2000/svg" xmlns:xlink="http://www.w3.org/1999/xlink" x="0px" y="0px"
	 viewBox="0 0 69.1 66.6" style="enable-background:new 0 0 69.1 66.6;" xml:space="preserve">
<style type="text/css">
	.st0{fill:#FFFFFF;}
</style>
<g>
	<path class="st0" d="M2.5,63.4c0.6,0,1.2,0,2,0c0-4.7,0-9.2,0-13.9c3.4,0,6.5,0,9.9,0c0,4.5,0,9,0,13.7c1.5,0,2.7,0,4,0
		c0-7.9,0-15.7,0-23.7c3.4,0,6.6,0,10,0c0,7.8,0,15.7,0,23.7c1.4,0,2.5,0,4,0c0-10.5,0-21.1,0-31.8c3.5,0,6.7,0,10,0
		c0,10.6,0,21,0,31.7c1.4,0,2.6,0,4.1,0c0-2.2,0-4.4,0-6.6c0-6.4,0-19.3,0-19.3s0-1.2,0.1-2.2c0.3,0,1.5,0,1.8,0c0-1.3,0-2.6,0-3.9
		c-8.9-3.4-13.1-9.9-11.7-17.4c1.4-7.4,7.6-12.6,15-12.5C59,1.4,65.1,6.6,66.4,13.9c1.3,7.5-3.1,14-11.7,17.2c0,1.2,0,2.5,0,4
		c0.6,0,1.2,0,1.9,0c0,9.2,0,18.8,0,28.1c3.3,0,6.5,0,9.9,0c0,0.9,0.1,1.5,0.1,2.1c-21.4,0-42.7,0-64.1,0C2.5,64.7,2.5,64,2.5,63.4z
		 M40.4,63.2c0-10.1,0-19.9,0-29.8c-2,0-3.9,0-5.7,0c0,10,0,19.9,0,29.8C36.7,63.2,38.5,63.2,40.4,63.2z M52.6,29.5
		c8.9-2.9,13-8.1,11.9-15.1c-1-6.3-6.3-11-12.6-11.1c-6.5-0.1-12.2,4.4-13.2,11c-1.2,8.1,4,13.9,11.8,15.3c0,1.2,0,2.5,0,3.7
		c0,0.9,0,1.7,0,1.7s1,0,2,0C52.6,33.1,52.6,31.3,52.6,29.5z M54.4,63.2c0-8.7,0-17.3,0-25.7c-2,0-3.9,0-5.7,0c0,8.7,0,17.1,0,25.7
		C50.6,63.2,52.4,63.2,54.4,63.2z M26.3,63.2c0-7.4,0-14.6,0-21.7c-2,0-3.9,0-5.7,0c0,7.3,0,14.5,0,21.7
		C22.6,63.2,24.4,63.2,26.3,63.2z M6.6,51.4c0,4.1,0,7.9,0,11.8c2,0,3.9,0,5.8,0c0-2.1,0-4,0-5.9c0-2,0-3.9,0-5.9
		C10.3,51.4,8.6,51.4,6.6,51.4z"/>
	<path class="st0" d="M34.4,23.4c0,2,0,3.8,0,5.7c-0.2,0.1-0.4,0.3-0.6,0.4c-0.6-0.7-1.3-1.4-2.1-2.2c-1.8,1.9-4,3.9-6,6.1
		c-1.2,1.3-2.5,2.1-4.3,1.8c-3.2-0.6-5.7,0.6-7.9,3c-2.9,3-6.1,5.7-9.2,8.5c-1.4-0.7-1.6-1.3-0.4-2.3c3.8-3.4,7.5-6.9,11.3-10.3
		c0.7-0.6,2-1,2.9-0.9c3.7,0.5,6.4-0.8,8.6-3.6c1.1-1.4,2.6-2.6,3.9-3.8c-0.8-0.6-1.6-1.2-2.3-1.8c0.1-0.2,0.2-0.5,0.3-0.7
		C30.5,23.4,32.3,23.4,34.4,23.4z"/>
	<path class="st0" d="M51.7,5.3c6,0.1,10.9,5,10.9,11.1s-5.1,11.1-11.3,10.9c-6-0.1-10.8-5.2-10.7-11.2C40.6,10.1,45.6,5.2,51.7,5.3
		z M60.5,16.4c0.1-5-4-9.1-8.9-9.1s-8.9,3.9-9.1,8.8c-0.1,5,3.8,9.2,8.8,9.3C56.3,25.4,60.5,21.4,60.5,16.4z"/>
	<path class="st0" d="M51.7,9.2c1.2,1.4,2.2,2.4,3,3.5c0.4,0.5,0.4,1.2,0.5,1.8c-0.6-0.1-1.2-0.2-1.8-0.4c-0.2-0.1-0.4-0.2-0.8-0.5
		c0,2.9,0,5.6,0,8.3c-1.4,0.6-2.1,0.5-2.1-1.2c0.1-2.3,0-4.6,0-7.3c-0.7,0.5-1,0.9-1.4,1s-1-0.1-1.5-0.1c0.1-0.4,0-1,0.2-1.3
		C49,11.9,50.2,10.7,51.7,9.2z"/>
	<rect x="60.4" y="35.4" class="st0" width="6.1" height="1.9"/>
	<rect x="60.4" y="39.3" class="st0" width="6.1" height="1.9"/>
	<rect x="60.4" y="43.4" class="st0" width="6.1" height="1.9"/>
	<rect x="60.4" y="47.5" class="st0" width="6.1" height="1.9"/>
	<rect x="60.4" y="51.6" class="st0" width="6.1" height="1.9"/>
	<rect x="60.4" y="55.7" class="st0" width="6.1" height="1.9"/>
	<rect x="60.4" y="59.8" class="st0" width="6.1" height="1.9"/>
</g>
</svg>
