<?xml version="1.0" encoding="utf-8"?>
<!-- Generator: Adobe Illustrator 23.0.3, SVG Export Plug-In . SVG Version: 6.00 Build 0)  -->
<svg version="1.1" id="Layer_1" xmlns="http://www.w3.org/2000/svg" xmlns:xlink="http://www.w3.org/1999/xlink" x="0px" y="0px"
	 viewBox="0 0 69.1 66.6" style="enable-background:new 0 0 69.1 66.6;" xml:space="preserve">
<style type="text/css">
	.st0{fill:#8F1D77;}
</style>
<g>
	<g>
		<rect x="-73" y="48.6" class="st0" width="2" height="5.8"/>
		<polygon class="st0" points="-66.3,48.6 -65.4,45.4 -66.8,45.4 -69.9,48.6 -69.9,54.4 -62.9,54.4 -61.8,48.6 		"/>
	</g>
	<path class="st0" d="M-33.1,44.2c-3.2,0-5.8,2.6-5.8,5.8c0,2,1,3.7,2.5,4.8l-1.5,2.5c0,0,6.3-1.4,7.6-2.3c0,0,0,0,0,0
		c1.8-1,2.9-2.9,2.9-5C-27.4,46.8-30,44.2-33.1,44.2z M-32.7,52.2h-3.2v-1h3.2V52.2z M-30.2,50.4h-5.8v-1h5.8V50.4z M-30.2,48.6
		h-5.8v-1h5.8V48.6z"/>
	<g>
		<path class="st0" d="M-46.4,11c-0.1,0-0.1,0-0.2,0V7.6c0,0-1.3,2.6-6.5,2.6h-2.7c0,0-0.5,0.1-0.6,0.6h-1.1v2.6h1.3l2.4,5.6h2.2
			c0,0,0.4-0.3-0.4-1.4c0,0-1-1.2-1.6-3.5c0,0,4.1-1,7.1,2.5v-3.4c0.1,0,0.1,0,0.2,0c0.6,0,1.1-0.5,1.1-1.1S-45.8,11-46.4,11z"/>
		<path class="st0" d="M-45,10.7c0.1,0.1,0.2,0.1,0.3,0l1.1-0.9c0.1-0.1,0.1-0.2,0-0.3l0,0c-0.1-0.1-0.2-0.1-0.3,0l-1.1,0.9
			C-45.1,10.4-45.1,10.6-45,10.7L-45,10.7z"/>
		<path class="st0" d="M-44.7,13.3c-0.1-0.1-0.2-0.1-0.3,0l0,0c-0.1,0.1-0.1,0.2,0,0.3l1.1,0.9c0.1,0.1,0.2,0.1,0.3,0l0,0
			c0.1-0.1,0.1-0.2,0-0.3L-44.7,13.3z"/>
		<path class="st0" d="M-43.1,11.8h-1.4c-0.1,0-0.2,0.1-0.2,0.2v0c0,0.1,0.1,0.2,0.2,0.2h1.4c0.1,0,0.2-0.1,0.2-0.2v0
			C-42.9,11.9-43,11.8-43.1,11.8z"/>
	</g>
	<g>
		<path class="st0" d="M-50.3,26.5c-4.8,0-8.8,3.9-8.8,8.8c0,3.3,1.8,6.2,4.5,7.7v2.7h0.5V47h0.7l0,1.3h6V47h0.9v-1.6h0.5v-2.5
			c2.7-1.5,4.5-4.4,4.5-7.6C-41.5,30.5-45.4,26.5-50.3,26.5z M-47.4,41.7v1.9c0,0.1,0,0.2,0,0.2h-5.7c0,0,0,0,0-0.2v-1.9
			c-2.4-1.1-4.2-3.5-4.2-6.4c0-3.9,3.1-7,7-7c3.9,0,7,3.1,7,7C-43.3,38.1-44.9,40.6-47.4,41.7z"/>
		<rect x="-51.3" y="22" class="st0" width="2" height="3.2"/>
		
			<rect x="-43.3" y="25.5" transform="matrix(0.7021 -0.7121 0.7121 0.7021 -31.3257 -21.8075)" class="st0" width="3.2" height="2"/>
		
			<rect x="-59.5" y="24.9" transform="matrix(0.7121 -0.7021 0.7021 0.7121 -35.4563 -33.3981)" class="st0" width="2" height="3.2"/>
		<rect x="-63.4" y="32.8" class="st0" width="3.2" height="1.9"/>
		<rect x="-40.2" y="32.8" class="st0" width="3.2" height="1.9"/>
	</g>
	<path class="st0" d="M-41.8,55.2c-2.6,1.1-5.4,1.7-8.4,1.7c-2.7,0-5.4-0.5-7.8-1.4l-1.8,1.6c2.9,1.3,6.1,2,9.5,2
		c3.5,0,6.9-0.8,9.9-2.1L-41.8,55.2z M-74.2,35.1c0,3.3,0.7,6.4,1.8,9.2l1.6-1.8c-0.8-2.3-1.3-4.8-1.3-7.4c0-8.6,5-16.1,12.3-19.6
		v-2.4C-68.2,16.8-74.2,25.2-74.2,35.1z M-41.6,12.7V15c7.8,3.3,13.2,11.1,13.2,20c0,2.4-0.4,4.8-1.1,6.9c0.5,0.5,1.1,1.1,1.6,1.8
		c1.1-2.7,1.6-5.6,1.6-8.7C-26.2,24.9-32.6,16.2-41.6,12.7z"/>
	<circle class="st0" cx="-50.2" cy="34.8" r="3.6"/>
</g>
<g>
	<path class="st0" d="M58.1,42.7c-1.6-0.4-3.1-0.7-4.6,0.6c-1.9,1.8-4,3.3-6,5c1,1.7,0.6,3.2-1.3,4c-0.9,0.4-2,0.5-3,0.4
		c-1.4-0.1-2.8-0.5-4.2-0.7c-2.1-0.3-4.2-0.8-6.4-0.1c-0.2,0.1-0.6-0.1-0.9-0.2c0.2-0.2,0.4-0.7,0.6-0.7c1.5-0.2,3-0.4,4.5-0.3
		c2.2,0.2,4.3,0.7,6.4,1c0.4,0.1,0.9,0.1,1.4,0c1.4-0.2,2.4-1.1,2.4-2c0-0.9-0.8-1.5-2.3-1.7c-4.4-0.7-8.6-1.9-12.7-3.6
		c-4.1-1.8-8.2-1.5-12,1.3c-1.2,0.9-2.3,1.8-3.6,2.7c1.3,2.9,2.6,5.9,3.9,8.9c0.2,0,0.2,0,0.3,0c0.4-0.1,0.7-0.3,1.1-0.5
		c2.5-1.4,5.1-1.4,7.8-0.5c2.2,0.7,4.5,1.3,6.8,1.9c2.5,0.7,4.9,0.6,7.2-0.8c2.1-1.3,4.3-2.6,6.6-3.5c4.3-1.8,6.1-5.9,8.6-9.3
		C59.3,44,58.9,42.9,58.1,42.7z"/>
	<path class="st0" d="M44.6,16.4c-1.5-0.7-2.6-0.2-3.4,1.4c-0.9-1.6-1.9-2-3.4-1.4c-1.4,0.6-2.2,1.6-2.3,3.2c-0.1,2.5,0,5,0,7.5
		c0,0.9,0.4,1.6,1.2,1.8c0.8,0.2,0.9,0.7,0.9,1.4c0.1,3.3,0.2,6.5,0.3,9.8c0,1.4,0.5,1.9,1.9,1.9c0.9,0,1.8,0,2.6,0
		c1.6,0,1.9-0.4,2-1.9c0.1-3.3,0.2-6.7,0.3-10c0-0.3,0.3-0.9,0.5-0.9c1.1-0.4,1.6-1.2,1.6-2.4c0-2.2,0-4.4,0-6.5
		C46.9,18.4,46.2,17.1,44.6,16.4z"/>
	<path class="st0" d="M28.4,26.7c0,0.4,0,0.8,0,1.1c0.1,3.3,0.2,6.6,0.3,9.9c0,1.3,0.5,1.7,1.8,1.7c0.9,0,1.9,0,2.8,0
		c1.3,0,1.8-0.5,1.9-1.8c0.1-2.2,0.1-4.4,0.2-6.6c0-0.8,0-1.4-0.6-2.1c-0.4-0.5-0.6-1.4-0.6-2.1c-0.1-2,0-3.9,0-5.9
		c-0.1-2.4,0.5-4.4,2.8-5.6c-0.7-1-1.5-1.4-2.6-1.6c-1.2-0.3-1.7,0.7-2.3,1.3c-0.8-0.5-1.5-1.2-2.2-1.2c-2.1-0.2-3.6,1.5-3.7,3.6
		c0,2.1,0,4.2,0,6.3C26.2,25.2,26.7,26.3,28.4,26.7z"/>
	<path class="st0" d="M48.1,20.6c-0.1,2,0,3.9,0,5.9c0,1.1-0.2,2-0.9,2.8c-0.2,0.2-0.3,0.6-0.3,0.9c0.1,2.6,0.1,5.2,0.2,7.8
		c0,1,0.6,1.5,1.5,1.5c0.9,0,1.8,0,2.7,0c1.9,0,2.2-0.3,2.3-2.2c0.1-3.5,0.2-7,0.3-10.6c1.1-0.3,2-0.8,2-2c0.1-2.6,0.1-5.3,0-7.9
		c-0.1-1.4-1-2.4-2.4-2.9c-1.3-0.5-2.2-0.1-3,1c0,0.1-0.2,0.1-0.3,0.2c-0.7-0.6-1.2-1.7-2.5-1.4c-1,0.3-1.9,0.6-2.5,1.6
		C47.4,16.4,48.2,18.2,48.1,20.6z"/>
	<path class="st0" d="M10.1,48.9c1.9,4.4,3.8,8.6,5.7,12.9c1.6-0.9,3-1.8,4.5-2.6c-1.8-4-3.5-7.8-5.2-11.8
		C13.3,47.9,11.7,48.4,10.1,48.9z"/>
	<path class="st0" d="M32,12.2c2.1,0,3.7-1.6,3.8-3.6c0.1-2.1-1.6-3.8-3.7-3.8c-2,0-3.7,1.7-3.7,3.7C28.3,10.6,29.9,12.2,32,12.2z"
		/>
	<path class="st0" d="M50.4,12.2c2,0,3.7-1.6,3.7-3.7c0-2.1-1.7-3.7-3.8-3.7c-2,0-3.7,1.7-3.6,3.7C46.7,10.6,48.3,12.2,50.4,12.2z"
		/>
	<path class="st0" d="M41.2,14.7c2,0,3.7-1.6,3.7-3.7c0-2.1-1.6-3.7-3.6-3.7c-2.1,0-3.7,1.6-3.8,3.6C37.4,13,39.1,14.7,41.2,14.7z"
		/>
</g>
</svg>
