<?xml version="1.0" encoding="utf-8"?>
<!-- Generator: Adobe Illustrator 23.0.3, SVG Export Plug-In . SVG Version: 6.00 Build 0)  -->
<svg version="1.1" id="Layer_1" xmlns="http://www.w3.org/2000/svg" xmlns:xlink="http://www.w3.org/1999/xlink" x="0px" y="0px"
	 viewBox="0 0 69.1 66.6" style="enable-background:new 0 0 69.1 66.6;" xml:space="preserve">
<style type="text/css">
	.st0{fill:#8F1D77;}
</style>
<g>
	<g>
		<rect x="11.7" y="48.6" class="st0" width="2" height="5.8"/>
		<polygon class="st0" points="18.4,48.6 19.3,45.4 17.9,45.4 14.8,48.6 14.8,54.4 21.9,54.4 23,48.6 		"/>
	</g>
	<path class="st0" d="M51.6,44.2c-3.2,0-5.8,2.6-5.8,5.8c0,2,1,3.7,2.5,4.8l-1.5,2.5c0,0,6.3-1.4,7.6-2.3c0,0,0,0,0,0
		c1.8-1,2.9-2.9,2.9-5C57.4,46.8,54.8,44.2,51.6,44.2z M52,52.2h-3.2v-1H52V52.2z M54.6,50.4h-5.8v-1h5.8V50.4z M54.6,48.6h-5.8v-1
		h5.8V48.6z"/>
	<g>
		<path class="st0" d="M38.4,11c-0.1,0-0.1,0-0.2,0V7.6c0,0-1.3,2.6-6.5,2.6h-2.7c0,0-0.5,0.1-0.6,0.6h-1.1v2.6h1.3l2.4,5.6H33
			c0,0,0.4-0.3-0.4-1.4c0,0-1-1.2-1.6-3.5c0,0,4.1-1,7.1,2.5v-3.4c0.1,0,0.1,0,0.2,0c0.6,0,1.1-0.5,1.1-1.1S38.9,11,38.4,11z"/>
		<path class="st0" d="M39.7,10.7c0.1,0.1,0.2,0.1,0.3,0l1.1-0.9c0.1-0.1,0.1-0.2,0-0.3l0,0c-0.1-0.1-0.2-0.1-0.3,0l-1.1,0.9
			C39.6,10.4,39.6,10.6,39.7,10.7L39.7,10.7z"/>
		<path class="st0" d="M40,13.3c-0.1-0.1-0.2-0.1-0.3,0l0,0c-0.1,0.1-0.1,0.2,0,0.3l1.1,0.9c0.1,0.1,0.2,0.1,0.3,0l0,0
			c0.1-0.1,0.1-0.2,0-0.3L40,13.3z"/>
		<path class="st0" d="M41.6,11.8h-1.4c-0.1,0-0.2,0.1-0.2,0.2v0c0,0.1,0.1,0.2,0.2,0.2h1.4c0.1,0,0.2-0.1,0.2-0.2v0
			C41.9,11.9,41.8,11.8,41.6,11.8z"/>
	</g>
	<g>
		<path class="st0" d="M34.5,26.5c-4.8,0-8.8,3.9-8.8,8.8c0,3.3,1.8,6.2,4.5,7.7v2.7h0.5V47h0.7l0,1.3h6V47h0.9v-1.6h0.5v-2.5
			c2.7-1.5,4.5-4.4,4.5-7.6C43.2,30.5,39.3,26.5,34.5,26.5z M37.4,41.7v1.9c0,0.1,0,0.2,0,0.2h-5.7c0,0,0,0,0-0.2v-1.9
			c-2.4-1.1-4.2-3.5-4.2-6.4c0-3.9,3.1-7,7-7c3.9,0,7,3.1,7,7C41.5,38.1,39.8,40.6,37.4,41.7z"/>
		<rect x="33.5" y="22" class="st0" width="2" height="3.2"/>
		<rect x="41.4" y="25.5" transform="matrix(0.7021 -0.7121 0.7121 0.7021 -6.0784 38.5384)" class="st0" width="3.2" height="2"/>
		<rect x="25.3" y="24.9" transform="matrix(0.7121 -0.7021 0.7021 0.7121 -11.0592 26.0978)" class="st0" width="2" height="3.2"/>
		<rect x="21.4" y="32.8" class="st0" width="3.2" height="1.9"/>
		<rect x="44.5" y="32.8" class="st0" width="3.2" height="1.9"/>
	</g>
	<path class="st0" d="M42.9,55.2c-2.6,1.1-5.4,1.7-8.4,1.7c-2.7,0-5.4-0.5-7.8-1.4L25,57c2.9,1.3,6.1,2,9.5,2c3.5,0,6.9-0.8,9.9-2.1
		L42.9,55.2z M10.6,35.1c0,3.3,0.7,6.4,1.8,9.2l1.6-1.8c-0.8-2.3-1.3-4.8-1.3-7.4c0-8.6,5-16.1,12.3-19.6v-2.4
		C16.5,16.8,10.6,25.2,10.6,35.1z M43.2,12.7V15c7.8,3.3,13.2,11.1,13.2,20c0,2.4-0.4,4.8-1.1,6.9c0.5,0.5,1.1,1.1,1.6,1.8
		c1.1-2.7,1.6-5.6,1.6-8.7C58.5,24.9,52.1,16.2,43.2,12.7z"/>
	<circle class="st0" cx="34.5" cy="34.8" r="3.6"/>
</g>
</svg>
