<?xml version="1.0" encoding="utf-8"?>
<!-- Generator: Adobe Illustrator 23.0.3, SVG Export Plug-In . SVG Version: 6.00 Build 0)  -->
<svg version="1.1" id="Layer_1" xmlns="http://www.w3.org/2000/svg" xmlns:xlink="http://www.w3.org/1999/xlink" x="0px" y="0px"
	 viewBox="0 0 69.1 66.6" style="enable-background:new 0 0 69.1 66.6;" xml:space="preserve">
<style type="text/css">
	.st0{fill:#8F1D77;}
	.st1{fill:none;}
</style>
<g>
	<g>
		<rect x="-213.4" y="72.4" class="st0" width="2" height="5.8"/>
		<polygon class="st0" points="-206.6,72.4 -205.8,69.2 -207.2,69.2 -210.2,72.4 -210.2,78.1 -203.2,78.1 -202.1,72.4 		"/>
	</g>
	<path class="st0" d="M-173.5,68c-3.2,0-5.8,2.6-5.8,5.8c0,2,1,3.7,2.5,4.8l-1.5,2.5c0,0,6.3-1.4,7.6-2.3c0,0,0,0,0,0
		c1.8-1,2.9-2.9,2.9-5C-167.7,70.6-170.3,68-173.5,68z M-173,76h-3.2v-1h3.2V76z M-170.5,74.2h-5.8v-1h5.8V74.2z M-170.5,72.4h-5.8
		v-1h5.8V72.4z"/>
	<g>
		<path class="st0" d="M-186.7,34.8c-0.1,0-0.1,0-0.2,0v-3.4c0,0-1.3,2.6-6.5,2.6h-2.7c0,0-0.5,0.1-0.6,0.6h-1.1v2.6h1.3l2.4,5.6
			h2.2c0,0,0.4-0.3-0.4-1.4c0,0-1-1.2-1.6-3.5c0,0,4.1-1,7.1,2.5v-3.4c0.1,0,0.1,0,0.2,0c0.6,0,1.1-0.5,1.1-1.1
			C-185.7,35.2-186.1,34.8-186.7,34.8z"/>
		<path class="st0" d="M-185.3,34.5c0.1,0.1,0.2,0.1,0.3,0l1.1-0.9c0.1-0.1,0.1-0.2,0-0.3l0,0c-0.1-0.1-0.2-0.1-0.3,0l-1.1,0.9
			C-185.4,34.2-185.5,34.4-185.3,34.5L-185.3,34.5z"/>
		<path class="st0" d="M-185,37.1c-0.1-0.1-0.2-0.1-0.3,0l0,0c-0.1,0.1-0.1,0.2,0,0.3l1.1,0.9c0.1,0.1,0.2,0.1,0.3,0l0,0
			c0.1-0.1,0.1-0.2,0-0.3L-185,37.1z"/>
		<path class="st0" d="M-183.4,35.6h-1.4c-0.1,0-0.2,0.1-0.2,0.2v0c0,0.1,0.1,0.2,0.2,0.2h1.4c0.1,0,0.2-0.1,0.2-0.2v0
			C-183.2,35.7-183.3,35.6-183.4,35.6z"/>
	</g>
	<g>
		<path class="st0" d="M-190.6,50.3c-4.8,0-8.8,3.9-8.8,8.8c0,3.3,1.8,6.2,4.5,7.7v2.7h0.5v1.3h0.7l0,1.3h6v-1.3h0.9v-1.6h0.5v-2.5
			c2.7-1.5,4.5-4.4,4.5-7.6C-181.8,54.3-185.8,50.3-190.6,50.3z M-187.7,65.5v1.9c0,0.1,0,0.2,0,0.2h-5.7c0,0,0,0,0-0.2v-1.9
			c-2.4-1.1-4.2-3.5-4.2-6.4c0-3.9,3.1-7,7-7c3.9,0,7,3.1,7,7C-183.6,61.9-185.3,64.4-187.7,65.5z"/>
		<rect x="-191.6" y="45.8" class="st0" width="2" height="3.2"/>
		
			<rect x="-183.6" y="49.3" transform="matrix(0.7021 -0.7121 0.7121 0.7021 -90.0794 -114.6457)" class="st0" width="3.2" height="2"/>
		
			<rect x="-199.8" y="48.7" transform="matrix(0.7121 -0.7021 0.7021 0.7121 -92.5637 -125.0673)" class="st0" width="2" height="3.2"/>
		<rect x="-203.7" y="56.5" class="st0" width="3.2" height="1.9"/>
		<rect x="-180.5" y="56.5" class="st0" width="3.2" height="1.9"/>
	</g>
	<path class="st0" d="M-182.2,79c-2.6,1.1-5.4,1.7-8.4,1.7c-2.7,0-5.4-0.5-7.8-1.4l-1.8,1.6c2.9,1.3,6.1,2,9.5,2
		c3.5,0,6.9-0.8,9.9-2.1L-182.2,79z M-214.5,58.9c0,3.3,0.7,6.4,1.8,9.2l1.6-1.8c-0.8-2.3-1.3-4.8-1.3-7.4c0-8.6,5-16.1,12.3-19.6
		v-2.4C-208.5,40.6-214.5,49-214.5,58.9z M-181.9,36.5v2.3c7.8,3.3,13.2,11.1,13.2,20c0,2.4-0.4,4.8-1.1,6.9
		c0.5,0.5,1.1,1.1,1.6,1.8c1.1-2.7,1.6-5.6,1.6-8.7C-166.6,48.7-172.9,40-181.9,36.5z"/>
	<circle class="st0" cx="-190.5" cy="58.5" r="3.6"/>
</g>
<g>
	<path class="st0" d="M-146.9,111.5c-1.6-0.4-3.1-0.7-4.6,0.6c-1.9,1.8-4,3.3-6,5c1,1.7,0.6,3.2-1.3,4c-0.9,0.4-2,0.5-3,0.4
		c-1.4-0.1-2.8-0.5-4.2-0.7c-2.1-0.3-4.2-0.8-6.4-0.1c-0.2,0.1-0.6-0.1-0.9-0.2c0.2-0.2,0.4-0.7,0.6-0.7c1.5-0.2,3-0.4,4.5-0.3
		c2.2,0.2,4.3,0.7,6.4,1c0.4,0.1,0.9,0.1,1.4,0c1.4-0.2,2.4-1.1,2.4-2c0-0.9-0.8-1.5-2.3-1.7c-4.4-0.7-8.6-1.9-12.7-3.6
		c-4.1-1.8-8.2-1.5-12,1.3c-1.2,0.9-2.3,1.8-3.6,2.7c1.3,2.9,2.6,5.9,3.9,8.9c0.2,0,0.2,0,0.3,0c0.4-0.1,0.7-0.3,1.1-0.5
		c2.5-1.4,5.1-1.4,7.8-0.5c2.2,0.7,4.5,1.3,6.8,1.9c2.5,0.7,4.9,0.6,7.2-0.8c2.1-1.3,4.3-2.6,6.6-3.5c4.3-1.8,6.1-5.9,8.6-9.3
		C-145.7,112.8-146.1,111.7-146.9,111.5z"/>
	<path class="st0" d="M-160.4,85.2c-1.5-0.7-2.6-0.2-3.4,1.4c-0.9-1.6-1.9-2-3.4-1.4c-1.4,0.6-2.2,1.6-2.3,3.2c-0.1,2.5,0,5,0,7.5
		c0,0.9,0.4,1.6,1.2,1.8c0.8,0.2,0.9,0.7,0.9,1.4c0.1,3.3,0.2,6.5,0.3,9.8c0,1.4,0.5,1.9,1.9,1.9c0.9,0,1.8,0,2.6,0
		c1.6,0,1.9-0.4,2-1.9c0.1-3.3,0.2-6.7,0.3-10c0-0.3,0.3-0.9,0.5-0.9c1.1-0.4,1.6-1.2,1.6-2.4c0-2.2,0-4.4,0-6.5
		C-158.1,87.2-158.8,85.9-160.4,85.2z"/>
	<path class="st0" d="M-176.6,95.5c0,0.4,0,0.8,0,1.1c0.1,3.3,0.2,6.6,0.3,9.9c0,1.3,0.5,1.7,1.8,1.7c0.9,0,1.9,0,2.8,0
		c1.3,0,1.8-0.5,1.9-1.8c0.1-2.2,0.1-4.4,0.2-6.6c0-0.8,0-1.4-0.6-2.1c-0.4-0.5-0.6-1.4-0.6-2.1c-0.1-2,0-3.9,0-5.9
		c-0.1-2.4,0.5-4.4,2.8-5.6c-0.7-1-1.5-1.4-2.6-1.6c-1.2-0.3-1.7,0.7-2.3,1.3c-0.8-0.5-1.5-1.2-2.2-1.2c-2.1-0.2-3.6,1.5-3.7,3.6
		c0,2.1,0,4.2,0,6.3C-178.8,94-178.3,95.2-176.6,95.5z"/>
	<path class="st0" d="M-156.9,89.4c-0.1,2,0,3.9,0,5.9c0,1.1-0.2,2-0.9,2.8c-0.2,0.2-0.3,0.6-0.3,0.9c0.1,2.6,0.1,5.2,0.2,7.8
		c0,1,0.6,1.5,1.5,1.5c0.9,0,1.8,0,2.7,0c1.9,0,2.2-0.3,2.3-2.2c0.1-3.5,0.2-7,0.3-10.6c1.1-0.3,2-0.8,2-2c0.1-2.6,0.1-5.3,0-7.9
		c-0.1-1.4-1-2.4-2.4-2.9c-1.3-0.5-2.2-0.1-3,1c0,0.1-0.2,0.1-0.3,0.2c-0.7-0.6-1.2-1.7-2.5-1.4c-1,0.3-1.9,0.6-2.5,1.6
		C-157.6,85.3-156.8,87.1-156.9,89.4z"/>
	<path class="st0" d="M-194.9,117.7c1.9,4.4,3.8,8.6,5.7,12.9c1.6-0.9,3-1.8,4.5-2.6c-1.8-4-3.5-7.8-5.2-11.8
		C-191.7,116.7-193.3,117.2-194.9,117.7z"/>
	<path class="st0" d="M-173.1,81c2.1,0,3.7-1.6,3.8-3.6c0.1-2.1-1.6-3.8-3.7-3.8c-2,0-3.7,1.7-3.7,3.7
		C-176.7,79.4-175.1,81-173.1,81z"/>
	<path class="st0" d="M-154.6,81c2,0,3.7-1.6,3.7-3.7c0-2.1-1.7-3.7-3.8-3.7c-2,0-3.7,1.7-3.6,3.7C-158.3,79.4-156.7,81-154.6,81z"
		/>
	<path class="st0" d="M-163.8,83.5c2,0,3.7-1.6,3.7-3.7c0-2.1-1.6-3.7-3.6-3.7c-2.1,0-3.7,1.6-3.8,3.6
		C-167.6,81.8-165.9,83.5-163.8,83.5z"/>
</g>
<g>
	<path class="st0" d="M-141.9-132.9c-0.2-0.2-0.3-0.3-0.4-0.4c-0.7-1-1.4-2-2.1-3.1c-0.2-0.3-0.4-0.4-0.8-0.4c-5.4,0-10.8,0-16.2,0
		c-0.2,0-0.3,0-0.5,0c-0.5-0.1-0.8-0.5-0.8-1c0-0.5,0.4-0.9,0.8-1c0.1,0,0.3,0,0.5,0c5.1,0,10.2,0,15.3,0c0.2,0,0.3,0,0.5,0
		c0-0.1,0-0.2-0.1-0.3c-0.3-1.1-0.7-2.1-0.9-3.2c-0.1-0.4-0.2-0.4-0.6-0.4c-5.6,0-11.2,0-16.8,0c-0.1,0-0.3,0-0.4,0
		c-0.5,0-0.9-0.4-0.9-0.9c0-0.5,0.4-1,0.9-1c0.1,0,0.3,0,0.5,0c5.5,0,11,0,16.5,0c0.2,0,0.3,0,0.5,0c0-1.3,0-2.6,0-3.9
		c-0.1,0-0.3,0-0.4,0c-4.8,0-9.5,0-14.3,0c-0.7,0-1.2-0.4-1.1-1c0-0.5,0.4-0.9,0.9-0.9c0.1,0,0.3,0,0.5,0c4.8,0,9.6,0,14.4,0
		c0.3,0,0.4-0.1,0.5-0.4c0.3-1.1,0.6-2.1,0.9-3.2c0-0.1,0.1-0.2,0.1-0.3c-0.2,0-0.4,0-0.5,0c-4.5,0-9.1,0-13.6,0
		c-0.8,0-1.2-0.4-1.2-1c0-0.5,0.4-0.9,0.9-0.9c0.2,0,0.3,0,0.5,0c4.8,0,9.6,0,14.4,0c0.3,0,0.5-0.1,0.6-0.4c2.9-5.2,7.2-8.7,13.2-10
		c7.6-1.7,14.1,0.5,19.4,6.1c3.3,3.5,5.1,7.8,5.3,12.6c0.4,7.1-2.1,13.1-7.7,17.7c-7.4,6.1-18.1,5.9-25.4-0.3
		c-0.3-0.2-0.5-0.3-0.8-0.3c-8.3,0-16.5,0-24.8,0c-0.2,0-0.3,0-0.5,0c-0.5,0-0.9-0.5-0.9-1c0-0.5,0.4-0.9,0.9-0.9c0.1,0,0.3,0,0.5,0
		c7.6,0,15.2,0,22.7,0C-142.3-132.9-142.2-132.9-141.9-132.9z M-145.1-147.1c0.1,6,2.1,10.7,6.3,14.6c5.7,5.3,14.4,6.2,21.1,2.2
		c5.7-3.4,8.8-8.5,9.3-15c0.4-5-1.1-9.6-4.3-13.5c-5.5-6.7-15-8.6-22.6-4.4C-141.8-159.6-144.8-153.9-145.1-147.1z"/>
	<path class="st0" d="M-111.3-146c-0.3,5.6-2.9,10.5-8.8,13.5c-6.5,3.3-14.4,1.4-18.8-4.3c-4.4-5.7-4.6-13.4-0.4-19.2
		c3.2-4.4,7.7-6.7,13.3-6.4c4.5,0.2,8.2,2.2,11.1,5.7C-112.4-153.8-111.3-150.4-111.3-146z M-113.2-146.2c-0.1-4.4-1.5-7.8-4.3-10.6
		c-4.7-4.6-12.3-5-17.4-0.9c-6.5,5.1-7.2,14.7-1.5,20.7c4.2,4.4,10.6,5.5,15.9,2.6C-115.6-137-113.4-141.3-113.2-146.2z"/>
	<path class="st0" d="M-125.2-136.2c-1.3,0-2.4,0-3.7,0c0-0.5,0-1,0-1.5c0-0.7,0-0.7-0.7-0.9c-0.8-0.2-1.6-0.5-2.5-0.7
		c-0.2-0.1-0.3-0.2-0.3-0.5c0-1,0-2.1,0-3.1c0.7,0.3,1.3,0.5,1.9,0.7c1.2,0.4,2.5,0.7,3.8,0.5c0.3,0,0.7-0.1,1-0.3
		c0.7-0.3,0.8-1,0.3-1.5c-0.2-0.3-0.6-0.5-0.9-0.6c-0.9-0.4-1.8-0.7-2.6-1.2c-0.7-0.4-1.5-0.7-2.2-1.2c-2.3-1.8-2.2-5.2,0.2-6.9
		c0.5-0.4,1.1-0.6,1.7-0.9c0.3-0.1,0.3-0.2,0.3-0.5c0-0.8,0-1.7,0-2.5c1.2,0,2.4,0,3.7,0c0,0.7,0,1.5,0,2.2c0,0.3,0.1,0.4,0.4,0.5
		c1.1,0.1,2.2,0.4,3.1,0.9c0.1,0.1,0.2,0.2,0.2,0.3c0,1.1,0,2.1,0,3.3c-0.2-0.1-0.3-0.1-0.4-0.2c-1.5-0.9-3.1-1.5-4.8-1.5
		c-0.3,0-0.6,0.1-0.9,0.1c-0.4,0.1-0.7,0.4-0.7,0.9c-0.1,0.4,0.2,0.7,0.6,0.9c0.8,0.4,1.6,0.7,2.4,1.1c1.2,0.5,2.3,1.1,3.3,2
		c2.2,2.1,1.9,6.7-1.8,7.9c-0.3,0.1-0.6,0.2-0.9,0.2c-0.3,0-0.4,0.2-0.4,0.5C-125.2-137.4-125.2-136.8-125.2-136.2z"/>
</g>
<g>
	<path class="st1" d="M131,9.7c0-0.2-0.2-0.3-0.4-0.4c-4.7-1.8-9.5-2.2-14.4-1.1c-1.1,0.3-2.2,0.6-3.3,0.9c0,0.1,0,0.2,0,0.2
		c1.1,2.8,2.6,5.3,4.6,7.6c0.1,0.1,0.3,0.1,0.5,0.1c0.5,0,0.9-0.1,1.4-0.1c0.3,0,0.4,0,0.6-0.2c3-3.1,6.5-5.3,10.5-6.6
		C130.8,10.1,131.1,10.1,131,9.7z"/>
	<path class="st1" d="M130.5,22.2c0.1,0,0.3-0.1,0.3-0.3c1.3-2.9,2-5.9,2.1-9.1c0-0.1-0.1-0.3-0.3-0.4c-0.3-0.3-0.8-0.5-1.1-0.8
		c-0.2-0.2-0.4-0.3-0.7-0.2c-3.7,1.3-7,3.3-9.8,6.1c-0.1,0.1-0.2,0.2-0.3,0.3c0.6,0.7,0.7,1.5,0.5,2.4c0,0.1,0.1,0.3,0.1,0.3
		c1.9,1.4,4,2.5,6.2,3.3C128.3,22.7,129.2,22.1,130.5,22.2z"/>
	<path class="st1" d="M133.8,7.1c0,0.1,0.2,0.3,0.4,0.4c0.7,0.2,1.3,0.6,1.7,1.3C136,9,136.1,9,136.4,9c1.6,0,3.3,0,4.9,0
		c0.9,0,1.9,0.2,2.8,0.4c-2.2-6.4-8.4-10.5-13.6-10.8c0,0.1,0,0.1,0.1,0.2C132.1,1.4,133.2,4.1,133.8,7.1z"/>
	<path class="st1" d="M136.5,10.3c-0.3,0-0.5,0.2-0.4,0.5c0,0.1,0.2,0.2,0.3,0.3c3.2,2.3,5.8,5.1,7.8,8.6c0.1,0.1,0.2,0.2,0.2,0.4
		c0.1,0,0.1,0,0.1,0c0-0.1,0-0.1,0.1-0.2c0.8-2.8,0.9-5.7,0.2-8.5c-0.1-0.3-0.2-0.4-0.5-0.4c-1.1-0.2-2.3-0.5-3.4-0.5
		C139.4,10.2,138,10.3,136.5,10.3z"/>
	<path class="st1" d="M130.6,8c0.6,0.2,1.1,0.4,1.6-0.2c0.2-0.2,0.4-0.4,0.3-0.7c-0.6-3-1.7-5.8-3.4-8.4c-0.2-0.3-0.4-0.4-0.7-0.4
		c-4.1,0.1-7.6,1.4-10.7,4c-1.7,1.5-3.1,3.2-4.2,5.3c0.3-0.1,0.4-0.1,0.6-0.2C119.6,5.8,125.1,6,130.6,8z"/>
	<path class="st0" d="M138.7,28.4c-1.9,1.5-4,2.5-6.3,3c-2.3,0.6-4.7,0.6-7,0.2c1.3-1.4,2.5-2.8,3.8-4.2c0.1-0.1,0.3-0.1,0.5-0.1
		c1,0.2,1.8-0.1,2.6-0.8c0.1-0.1,0.4-0.2,0.5-0.2c1.4,0,2.7,0.1,4.1,0.2c0.6,0,1.1-0.1,1.7-0.1c0.1-0.5,0.1-0.9,0.2-1.3
		c-0.1,0-0.2,0-0.3,0c-1.7,0.2-3.4,0.2-5.2,0c-0.3,0-0.4-0.1-0.4-0.4c0-0.6-0.2-1.2-0.7-1.6c-0.2-0.2-0.2-0.4-0.1-0.6
		c0.3-0.6,0.5-1.2,0.7-1.9c0.9-2.5,1.3-5,1.5-7.6c0-0.2,0.1-0.4,0.2-0.4c0.3-0.2,0.7-0.4,1-0.5c0.1,0.1,0.3,0.2,0.5,0.3
		c0.3,0.2,0.6,0.5,0.9,0.7c2.7,2.1,4.8,4.7,6.4,7.7c0.1,0.1,0.2,0.4,0.3,0.4c0.8,0.1,1.7,0.1,2.5,0.2c2.4-6.7,0.8-15.6-6.5-21.1
		c-6.9-5.2-16.5-4.9-23.2,0.7c-6.9,5.8-7.8,14.5-5.7,20.2c0.6-0.1,1.2-0.3,1.9-0.4c-1.1-3.2-1.2-6.3-0.4-9.6
		c0.1,0.1,0.1,0.1,0.1,0.1c1.1,2.4,2.5,4.6,4.3,6.6c0.2,0.2,0.1,0.3,0,0.5c-0.3,0.6-0.5,1.3-0.2,1.9c0.3,0.6,0.4,1.2-0.1,1.6
		c0.3,0.3,0.6,0.6,0.9,1c0.2-0.3,0.4-0.6,0.5-0.9c1,0.4,1.9,0.3,2.7-0.3c0.1-0.1,0.3,0,0.4,0.1c2,1.4,4.2,2.5,6.5,3.4
		c0.1,0,0.2,0.2,0.3,0.3c0.2,0.4,0.3,0.8,0.5,1.2c-1.2,1.7-2.7,3.2-4.4,4.6c-0.1,0.1-0.3,0.1-0.4,0c-0.7-0.2-1.4-0.5-2-0.8
		c-1.1-0.6-2.2-1.3-3.3-1.9c-0.3,0.5-0.6,1-0.9,1.6c6.7,5.3,16.5,4.9,22.5,0.1C139.3,29.5,139,29,138.7,28.4z M144.7,11.2
		c0.7,2.9,0.6,5.7-0.2,8.5c0,0.1,0,0.1-0.1,0.2c0,0,0,0-0.1,0c-0.1-0.1-0.2-0.2-0.2-0.4c-1.9-3.4-4.5-6.3-7.8-8.6
		c-0.1-0.1-0.3-0.2-0.3-0.3c-0.1-0.3,0.1-0.5,0.4-0.5c1.5,0,2.9-0.1,4.4,0c1.1,0.1,2.3,0.3,3.4,0.5C144.5,10.9,144.7,11,144.7,11.2z
		 M144.1,9.4c-1-0.1-1.9-0.3-2.8-0.4C139.7,9,138,9,136.4,9c-0.3,0-0.4,0-0.5-0.3c-0.4-0.7-0.9-1.1-1.7-1.3c-0.1,0-0.3-0.2-0.4-0.4
		c-0.6-3-1.6-5.8-3.2-8.4c0,0,0-0.1-0.1-0.2C135.7-1.1,142,3.1,144.1,9.4z M117.6,2.4c3.1-2.6,6.7-3.9,10.7-4c0.3,0,0.5,0.1,0.7,0.4
		c1.6,2.6,2.8,5.4,3.4,8.4c0.1,0.3-0.1,0.5-0.3,0.7c-0.5,0.6-1,0.4-1.6,0.2c-5.5-2-11-2.2-16.6-0.5c-0.2,0-0.3,0.1-0.6,0.2
		C114.5,5.6,115.9,3.8,117.6,2.4z M120,16.8c-0.2,0.2-0.4,0.2-0.6,0.2c-0.4,0-0.9,0-1.4,0.1c-0.2,0-0.4,0-0.5-0.1
		c-2-2.2-3.6-4.8-4.6-7.6c0,0,0-0.1,0-0.2c1.1-0.3,2.1-0.7,3.3-0.9c4.9-1.1,9.7-0.7,14.4,1.1c0.2,0.1,0.4,0.2,0.4,0.4
		c0.1,0.3-0.2,0.4-0.4,0.4C126.5,11.6,123,13.8,120,16.8z M127.8,23.8c-2.3-0.8-4.3-1.9-6.2-3.3c-0.1-0.1-0.2-0.2-0.1-0.3
		c0.2-0.9,0-1.6-0.5-2.4c0.1-0.1,0.2-0.2,0.3-0.3c2.8-2.8,6-4.9,9.8-6.1c0.3-0.1,0.4-0.1,0.7,0.2c0.3,0.3,0.7,0.5,1.1,0.8
		c0.1,0.1,0.3,0.3,0.3,0.4c-0.1,3.2-0.8,6.2-2.1,9.1c-0.1,0.1-0.2,0.3-0.3,0.3C129.2,22.1,128.3,22.7,127.8,23.8z"/>
	<path class="st0" d="M127.1,42.4c-1.3-1.1-2.6-2.2-3.9-3.3c-0.2-0.2-0.4-0.4-0.5-0.6c-1.3-1.8-2.5-3.7-3.7-5.5
		c-0.3-0.5-0.8-0.8-1.4-0.8c-1.6,0-3.3-0.2-4.9-0.1c-1.9,0-3.8,0.4-5.6,1c-0.5,0.2-0.8,0.4-0.8,0.9c-0.1,0.6-0.1,1.1-0.1,1.7
		c0,3.4,0,6.8,0,10.2c0,0.8,0.2,1.6,0.7,2.2c0.7,0.8,0.8,1.7,0.9,2.6c0.1,1.8,1.2,3.1,2.8,3.2c1.7,0.1,3.3,0.1,5,0
		c1.6-0.1,2.8-1.4,2.8-3c0-2.2,0.1-4.3,0.1-6.5c0-1.7,0-3.4,0-5c0.1,0,0.1,0,0.2,0c0.2,0.2,0.4,0.5,0.6,0.7c0.8,1,1.7,1.8,2.8,2.5
		c1.2,0.8,2.3,1.6,3.5,2.4c0.9,0.6,2.1,0.2,2.3-0.9C127.8,43.3,127.5,42.8,127.1,42.4z"/>
	<path class="st0" d="M150.9,41.1c0-2.3-0.1-4.7-0.2-7c0-0.5-0.3-0.8-0.7-0.9c-0.9-0.3-1.9-0.6-2.8-0.9c-0.5-0.2-0.7-0.1-0.9,0.4
		c-0.3,1-0.6,2-0.9,3c-0.1,0.2-0.1,0.4-0.2,0.6c0,0-0.1,0-0.1,0c0-1-0.5-1.9,0-2.9c0.2-0.4-0.1-0.7-0.6-0.8c-0.3,0-0.6,0-0.8,0
		c-0.6,0-0.9,0.4-0.6,1c0.1,0.2,0.2,0.4,0.2,0.6c-0.1,0.7-0.2,1.4-0.3,2.2c-0.1-0.1-0.2-0.2-0.2-0.3c-0.3-1.1-0.7-2.2-1-3.2
		c-0.1-0.5-0.4-0.7-0.9-0.6c-0.5,0.1-1.1,0.1-1.6,0.1c-0.7,0-1.1,0.3-1.5,0.9c-1.2,1.8-2.4,3.6-3.7,5.4c-0.2,0.2-0.3,0.4-0.5,0.6
		c-1.3,1.1-2.6,2.2-4,3.3c-0.5,0.4-0.6,0.9-0.5,1.5c0.1,0.5,0.5,0.9,1,1.1c0.5,0.2,1,0,1.4-0.3c1.5-1,3-2.1,4.4-3.1
		c0.3-0.2,0.6-0.5,0.8-0.7c0.5-0.6,1-1.1,1.6-1.7c0,0,0.1,0,0.1,0c0,0.2,0,0.5,0,0.7c0,3.6,0.1,7.2,0.1,10.8c0,1.8,1.2,3.1,2.9,3.1
		c1.6,0.1,3.1,0.1,4.7,0c1.4-0.1,2.4-0.9,2.8-2.2c0.2-0.7,0.2-1.4,0.3-2.1c0.1-0.3,0.2-0.7,0.4-0.9c0.7-0.9,1.1-1.9,1.1-3
		C150.9,44.2,150.9,42.6,150.9,41.1z"/>
	<path class="st0" d="M116.8,26.4c0-2.2-1.8-4-4-4.1c-2.2,0-4.1,1.8-4.1,4c0,2.1,1.9,4.1,4,4.1C114.9,30.5,116.8,28.6,116.8,26.4z"
		/>
	<path class="st0" d="M144.1,22.6c-2.2,0-4.1,1.8-4.1,4c0,2.1,1.9,4.1,4,4.1c2.2,0,4.1-1.9,4.1-4C148.2,24.5,146.4,22.6,144.1,22.6z
		"/>
</g>
<g>
	<path class="st0" d="M61.2,40c-1.3,0-2.7,0-4,0c-0.2,0-0.3,0-0.4-0.2c-0.3-1.1-1-1.8-2-2.3c-0.1,0-0.2-0.1-0.2-0.2
		c-0.1-0.5-0.2-1.1-0.3-1.6c-0.5-2.1-1-4.1-1.5-6.2c-0.4-1.7-0.9-3.5-1.3-5.2c-0.4-1.6-0.8-3.1-1.2-4.7c-0.5-1.9-1.9-3.4-4-3.6
		c-1.6-0.2-3,0.2-4.3,1.1c-1.6,1.1-2.3,2.7-2.6,4.6c-0.2,1.3-0.5,2.5-0.8,3.7c-0.4,1.4-1.3,2.3-2.7,2.5c-1.2,0.2-2.5,0.3-3.7,0.4
		c-0.4,0-0.8,0-1.2,0c-0.9,0-1.8,0.2-2.4,1c-0.1,0.1-0.2,0.1-0.3,0.1c-1-0.3-2-0.6-2.9-0.9c-0.5-0.2-0.9-0.5-1.3-0.9
		c-0.7-0.7-1-1.7-1.2-2.6c-0.3-1.5-0.6-3-0.8-4.5c-0.1-0.7-0.4-1.4-0.9-1.9c-0.4-0.5-0.9-1-1.4-1.4c-0.7-0.6-1.6-1-2.6-1.2
		c-1.5-0.2-3-0.1-4.4,0.8c-0.9,0.5-1.6,1.2-2,2.2c-0.2,0.5-0.3,1.1-0.4,1.6c-0.4,1.7-0.7,3.4-1.1,5.1c-0.3,1.4-0.6,2.8-0.9,4.2
		c-0.2,1.2-0.5,2.3-0.7,3.5c-0.4,1.9,0.1,3.4,1.5,4.8c0.1,0.1,0.2,0.4,0.2,0.5c0,2.8,0,5.6,0,8.4c0,4.3,0,8.5,0,12.8
		c0,1.8,1.5,3.3,3.2,3.4c2,0.1,3.6-1.5,3.6-3.4c0-6.6,0-13.2,0-19.8c0-0.4,0.1-0.6,0.4-0.7c0.7-0.3,1.3-0.8,1.8-1.4
		c0.6-0.9,0.8-1.9,1-2.9c0.3-1.3,0.5-2.6,0.8-3.8c0,0,0.1-0.1,0.1-0.1c0.3,0.3,0.6,0.5,0.9,0.8c1,0.8,2.1,1.4,3.3,1.8
		c0.9,0.3,1.7,0.6,2.6,0.8c1,0.2,2.1,0.3,3.1,0.5c1.1,0.3,2.3-0.4,2.7-1.4c0-0.1,0.2-0.2,0.3-0.2c1.4-0.2,2.9-0.3,4.3-0.7
		c1.2-0.3,2.2-0.8,3.2-1.5c0.2-0.2,0.4-0.4,0.7-0.6c0.1,0.3,0.1,0.6,0.2,0.8c0.3,1.3,0.6,2.5,0.8,3.8c0.3,1.3,0.6,2.5,1.6,3.4
		c0.4,0.3,0.7,0.7,1.2,0.7c0.4,0,0.7,0,1.1,0c0.2,0,0.3-0.1,0.4-0.3c0.3-0.8,0.9-1.4,1.6-1.8c0.2-0.1,0.2-0.3,0.2-0.5
		c-0.2-0.8-0.3-1.6-0.6-2.4c-0.6-2-1.2-4-1.8-6.1c-0.2-0.8-0.6-1.5-0.8-2.2c0-0.1,0.1-0.4,0.1-0.5c0.2,0.1,0.4,0.1,0.5,0.2
		c0.2,0.3,0.4,0.6,0.5,0.9c0.6,1.8,1.2,3.7,1.7,5.5c0.5,1.6,0.9,3.3,1.3,5c0.1,0.2,0,0.3-0.2,0.5c-1,0.4-1.6,1.2-1.9,2.2
		C47.2,40,47.1,40,46.8,40c-1.4,0-2.7,0-4.1,0c-0.3,0-0.4,0.1-0.4,0.4c0,4.5,0,9,0,13.4c0,0.4,0.1,0.4,0.4,0.4c2.8,0,5.5,0,8.3,0
		c3.4,0,6.7,0,10.1,0c0.3,0,0.4-0.1,0.4-0.4c0-0.7,0.1-1.4,0.1-2c0-3.8,0-7.6,0-11.3C61.7,40,61.7,40,61.2,40z M49,40
		c0.2-0.5,0.6-0.9,1.1-1c0.1,0,0.3,0.1,0.5,0.2c0.7,0.5,1.5,0.7,2.3,0.4c0.3-0.1,0.6-0.3,0.9-0.5c0.2-0.1,0.4-0.2,0.5-0.1
		c0.4,0.2,0.8,0.4,0.9,0.9C53,40,51,40,49,40z"/>
	<path class="st0" d="M41.4,16.2c3.5,0,6.5-2.9,6.4-6.4c0.1-3.6-3-6.4-6.3-6.4c-3.6,0-6.5,2.8-6.5,6.4C35,13.3,37.8,16.2,41.4,16.2z
		"/>
	<path class="st0" d="M20.1,16.3c3.5,0,6.6-3,6.4-6.4c0.2-3.4-2.8-6.5-6.3-6.5c-3.5,0-6.4,2.8-6.5,6.5
		C13.7,13.4,16.7,16.2,20.1,16.3z"/>
	<path class="st0" d="M52.3,56.1c0-0.3,0-0.6,0-0.8c-2.3,0-4.5,0-6.8,0c0,0.1,0,0.2,0,0.3c0,1.4,0,2.8,0,4.2c0,1.4,0.7,2.5,1.9,3.1
		c1.2,0.6,2.4,0.4,3.4-0.3c1-0.7,1.4-1.8,1.4-3C52.3,58.4,52.3,57.2,52.3,56.1z"/>
</g>
</svg>
