<?xml version="1.0" encoding="utf-8"?>
<!-- Generator: Adobe Illustrator 23.0.3, SVG Export Plug-In . SVG Version: 6.00 Build 0)  -->
<svg version="1.1" id="Layer_1" xmlns="http://www.w3.org/2000/svg" xmlns:xlink="http://www.w3.org/1999/xlink" x="0px" y="0px"
	 viewBox="0 0 792 284.9" style="enable-background:new 0 0 792 284.9;" xml:space="preserve">
<style type="text/css">
	.st0{fill:#902579;}
</style>
<path class="st0" d="M473.7,142.6c67.3-30.8,125.5-57.3,292.4-9.2c4.8,1.4,16.5,5.2,17.6,11.9c1.4,7.7-2.5,10.9-13.1,14.2
	c-12.4,3.8-28.6,8.4-28.6,8.4s16.2,14.5,24.4,20.8c2.1,1.6,10.5,8.4,6.2,15.1c-3.5,5.5-8.8,5.7-17.9,3.2
	c-65.5-17.7-155.1-23.2-265.5,8.3c-5.1,1.4-16.1,7.3-18.6-8.6c-0.4-2.5-2.6-15.7,25.2-30.8c0,0-15.3-9.6-24.7-14.6
	c-2.8-1.5-6.4-4.7-3.8-12.4C467.9,146.8,469.7,144.5,473.7,142.6z"/>
<g>
	<path d="M429.3,150.2c-15.5-13.7-34.1-15.7-53.7-12.9c-2.5,0.4-4,2.3-4.2,5c-0.4,4.8,2.3,7.6,7.1,7.7c10.6,0.1,21,1.1,30.7,5.8
		c7.3,3.6,12.6,9,14.7,17.2c3.8,15.4-6.2,26-21.6,22.9c-10.8-2.2-19.5-8.1-27.3-15.6c-12.5-12-21.9-26.1-27.4-42.6
		c-0.8-2.3-0.1-3.4,1.7-5c8.1-7.2,16.6-14.2,23.9-22.2c9.6-10.5,17.7-22.4,22.2-36.1c1.3-3.8,1.2-8.3,0.5-12.3
		c-0.9-4.9-4.9-6.8-9.7-4.9c-3.7,1.5-7.3,3.7-10.4,6.2c-11,8.6-18.8,19.9-26,31.6c-0.6,1-1.2,1.9-1.8,2.9c-0.3-0.1-0.6-0.3-1-0.4
		c2.9-9.4,5.8-18.8,8.6-28.2c2.3-7.9,4.8-15.8,6.7-23.8c1.1-4.5-1-8.2-4.7-9.9c-4.1-1.9-8.3-1.2-11.3,2.7c-2.6,3.4-4.9,7.2-6.6,11.1
		c-15,33.9-22.2,69.5-24.1,106.4c-0.1,2.1-0.7,4.4-1.8,6.3c-2.6,4.5-5.4,8.9-8.5,13c-3.9,5.2-8.2,10.1-14.4,13.7
		c-0.5-7.1,1.2-13.2,3.2-19.3c3.5-10.3,7.7-20.3,10.7-30.8c1.7-5.8,2-12.1,1.9-18.2c-0.1-6.3-5.3-9.4-11.2-7.3
		c-2.4,0.9-4.7,2.2-6.8,3.7c-6.3,4.6-10.6,11-14.5,17.6c-0.5,0.8-1.1,1.6-1.9,2.9c-0.4-2.6-0.5-4.4-0.9-6.2
		c-0.4-1.9-0.8-3.9-1.6-5.7c-1.2-2.9-3.7-3.9-6.6-3.7c-2.9,0.2-3.9,2.2-4.5,4.7c-4.4,18.7-13.5,35.2-25,50.5c-0.9,1.2-2,2.3-3.8,4.3
		c-0.2-2.7-0.6-4.3-0.3-5.7c2.3-10.7,4.5-21.5,7.1-32.1c1.3-5.4,3.3-10.6,4.8-15.9c0.9-3,1.7-6.8-1.6-8.3c-2.1-1-5.2,0.4-8.7,0.8
		c-2.4-2.7-4.3-3.7-9.2-2.4c-17,4.3-28.8,14.9-35.4,30.9c-2.6,6.4-2,12.9,2.8,18.5c0.6,0.7,0.8,2.4,0.4,3.2
		c-3.8,6.6-7.8,13.1-11.9,19.6c-0.9,1.5-2.2,2.7-3.4,4.1c-0.6-2.6-0.7-4.8-0.3-7c3.2-15.3,6.7-30.6,9.6-46
		c1.1-5.6,1.3-11.5,1.1-17.2c-0.2-4.7-3.6-5.8-7.5-2.8c-2.2,1.8-4.4,3.7-6.7,5.3c-8.8,6-15.7,13.9-21.1,23c-1.6,2.7-3,5.5-4.5,8.3
		c-0.3-0.1-0.6-0.1-0.9-0.2c0.3-4.8,0.7-9.7,0.8-14.5c0.1-6.1,2.4-10.4,7.4-14.6c11.9-10,20.3-22.6,23.3-38.2
		c2.5-12.6-5.6-22.7-17.4-21.8c-6.4,0.5-11.4,4-14.5,9.2c-4.3,7-8.1,14.4-11.3,22c-10.9,26.6-12.4,54.5-10.5,82.8
		c0.3,5.1,2.2,10.4,4.4,15.1c2,4.4,7.3,5.9,12.2,4.8c4.7-1.1,7.4-4.2,7.9-9.5c0.2-2,0.2-4,0-5.9c-0.6-5.3-0.5-10.4,1.6-15.6
		c4.5-11.3,10.5-21.5,18-31c2.2-2.7,4.6-5.1,6.4-7c-4,10.9-9,22.1-12.3,33.8c-2.7,9.4-4,19.3-4.8,29.1c-0.6,8.4,6,15.4,13.5,15.9
		c6.7,0.4,11.6-3,15.2-8.3c5.9-8.8,10.4-18.2,13.6-28.3c0.3-1,1-2.6,1.5-2.6c5.6,0,9.6-3.3,14-7.1c0,4.2-0.3,7.7,0.1,11.2
		c0.6,7,2.9,13.2,10.3,15.7c7,2.3,11.9-1.3,16.2-6.2c2.1-2.5,4-5.1,6.1-7.8c0.3,0.4,0.5,0.5,0.6,0.7c1.6,6,5.5,9.1,10.8,8.4
		c5.7-0.7,8.5-4.2,9-10.4c0.2-2.7,0.4-5.5,1.5-7.9c4.6-10.4,9.5-20.6,14.4-30.9c3.8-7.9,7.5-12.1,14-15.4c-3.6,8.6-6.7,16.3-10,24
		c-2.9,6.8-6.2,13.5-8.7,20.4c-3,8-5.1,16.4-3.3,25c1.2,5.6,3.7,10.3,9.5,12.3c5.9,2,10.6-0.4,14.8-4.4c1.5-1.5,2.9-3,4.2-4.7
		c4.2-5.7,8.4-11.5,11.9-16.4c2.6,4.3,4.8,9.3,8.1,13.3c3.9,4.7,9.2,4.9,13.6,1.7c4.4-3.2,6.7-10.6,4-14.9c-3.7-6-1.4-12-1.8-17.4
		c5.3,8.1,10.1,16.9,16.3,24.6c10.8,13.2,23.8,23.9,40.8,28.2c15.1,3.8,29,1.4,39.4-11.1C447.5,188.7,444.7,163.8,429.3,150.2z
		 M384.6,72.1c-7.9,18.7-19.5,33.9-33.5,47.9C353.5,107.8,375.7,75.8,384.6,72.1z M150.3,112.1c1.9-8.1,3.8-16.3,5.9-24.4
		c0.6-2.3,2-4.5,3.5-6.4c1.8-2.2,4.2-2,5.3,0.6c1,2.1,1.8,4.8,1.5,7c-2.1,13.4-9,24.4-18.5,34.1
		C148.7,119.4,149.4,115.7,150.3,112.1z M204.9,160.6c-0.8,0.7-2.2,0.6-3.3,0.8c0-1.5-0.5-3.3,0.2-4.4c5.2-7.5,10.9-14.6,19.6-20.3
		C217.8,146.9,212.3,154.4,204.9,160.6z"/>
	<path d="M750.8,130.4c-0.6-4-4.1-6-8-5.1c-3.9,0.9-5.4,3.7-6.3,7.4c-1.5,6.7-2.6,13.7-5.3,19.9c-3.7,8.6-12.4,9.4-18.4,2.2
		c-1.1-1.3-2-2.8-2.9-4.3c-4.7-8.1-6.7-17-5.7-26c1.8-14.9,4.5-29.8,7-44.6c1.4-8.3,3.5-16.4,4.7-24.7c0.3-2.3-0.8-5.5-2.4-7.3
		c-3.5-3.8-8.2-2.6-11.1,2.6c-7.7,13.4-12.5,27.9-16.5,42.7c-2.3,8.6-6.7,16.3-14,21.8c-1.4,1.1-4.1,1.4-5.7,0.9
		c-1-0.3-1.8-3.2-1.6-4.8c0.7-4.5,1.6-9,3-13.3c3.1-9.5,6.7-18.8,9.8-28.3c1.6-4.7,0.7-8-2.4-10c-3.5-2.3-6.8-1.1-10,1
		c-6.1,4.2-9.8,10.3-13.6,16.4c-0.6,1-1.1,2.4-2.1,2.9c-3.4,1.9-15.1,0-17.2-3c-2.6-3.6-5.9-3.7-9.6-3.3c-7.5,0.9-13.9,4.3-19.3,9.4
		c-8.8,8.3-13.9,18.5-15.3,30.6c-1.5,0.4-2.8,0.8-4.5,1.3c0.5-3.8,1-7.3,1.5-10.8c2.5-17.3,3.6-34.6,3.1-52.1
		c-0.1-3.2-1.4-5.6-4.7-6.1c-3.4-0.5-5.7,1-6.9,4.2c-0.3,0.9-0.6,1.9-0.9,2.8c-2.3,7.5-3.8,15.4-7.1,22.5
		c-6.6,14.1-14.5,27.6-24.9,39.4c-6.3,7.2-13.1,13.9-22.5,17c-13.4,4.6-21.4-2.2-19.2-16.1c2.6-16.8,10.5-31.5,18.6-46.1
		c2.1-3.8,2.1-6.6-0.8-9.3c-2.7-2.6-5.7-2.8-9-0.2c-14.9,11.7-26.2,25.8-30.7,44.6c-2.5,10.5-2.3,20.9,2.6,30.7c2.5,5,6,9,11.2,11.4
		c10,4.6,19.9,3.8,28.5-2.3c8.5-6,16.4-13.1,24.1-20.2c5.5-5.1,10.3-11,15.6-16.9c-1.5,8.1-2.7,15.9-4.4,23.6
		c-0.5,2.3-1.9,4.8-3.6,6.5c-15.7,15.4-30.3,31.6-41.2,50.8c-4.6,8.2-7.8,16.8-7.1,26.5c1.2,17.5,16.5,25.5,31.2,16.1
		c4-2.6,7.6-6.1,10.4-9.9c16.2-22.7,25.6-48.2,30.8-75.4c0.7-3.8,0.9-8.3,3.1-11.2c2.7-3.6,7.1-5.9,10.7-8.7
		c6.3,6.1,11.8,7.4,18.5,4c9.7-4.9,17.1-12.4,20.8-22.7c2.1-5.7,2.8-11.9,4.1-17.8c3.3,0.8,7,1.7,10.9,2.7c-0.2,1.5-0.4,3-0.5,4.4
		c-1,7.8-1,15.5,2.9,22.7c3.4,6.3,11.2,13,20.6,10.2c4-1.2,7.8-2.8,11.6-4.1c0.6,5.7,0.7,12,1.9,18c2.7,13.9,8.4,26,21.2,33.7
		c14.4,8.7,31.3,5,40.4-9.3C751.3,156.1,752.7,143.5,750.8,130.4z M530.4,211.1c-1,1.6-2.1,3.2-3.5,4.3c-1,0.8-2.9,1.5-3.9,1.1
		c-0.9-0.4-1.9-2.5-1.6-3.6c1.6-6.2,2.9-12.5,5.6-18.2c5.7-12,14.6-21.9,23.5-32.4C547,180.4,539.9,196.2,530.4,211.1z M620.8,106.9
		c-3,4.1-7,7.6-10.8,11c-1,0.9-3,0.7-4.6,1c0.6-1.3,1.1-2.7,1.9-4.4c-2.8-2.6,9-20.1,17.7-25.1C625.7,95.9,624.5,101.9,620.8,106.9z
		"/>
	<path d="M154.2,62.4c3.5-2.6,4.3-6.8,2.8-10.7c-1.4-3.7-4.7-6.2-8.9-5.9c-4,0.3-8,1.2-11.9,2.3c-10.3,2.7-19.8,8.2-30.7,9.2
		c-1.3,0.1-2.5,1-3.7,1.7c-2.4,1.3-4.6,2.8-7,3.9c-14.3,6.5-28.6,12.8-42.9,19.3c-2.6,1.2-5,2.7-7.3,4.4c-3.2,2.4-4.7,5.8-4.1,9.8
		c0.5,3.8,4.5,5.6,7.9,3.9c4.2-2,8.3-4.1,12.6-5.8c9.2-3.5,18.4-6.9,28.5-10.6c-0.7,2.2-1,3.4-1.4,4.6
		c-11.1,33.9-17.9,68.4-15.9,104.2c0.5,9.1,0.7,18.3,4.2,27c2.2,5.4,6.1,8.1,10.6,7.4c5.5-0.8,10.2-5.4,10.5-10.9
		c0.2-3.1,0.2-6.2-0.4-9.2c-3.9-21.3-3.2-42.7,0.8-63.8c4.1-21.6,9.7-42.9,14.5-64.3c0.5-2.3,1.8-3.2,3.9-3.8
		c9.7-2.7,19.5-5.4,29.2-8.4C148.7,65.6,151.7,64.2,154.2,62.4z"/>
</g>
</svg>
